<svg width="320" height="160" viewBox="0 0 320 160" fill="none" xmlns="http://www.w3.org/2000/svg">
<rect width="320" height="160" fill="#FEEDCC"/>
<path d="M150.783 61.2401H147.902C147.791 60.6245 147.585 60.0829 147.283 59.6151C146.982 59.1473 146.612 58.7502 146.175 58.424C145.738 58.0978 145.249 57.8516 144.707 57.6854C144.172 57.5192 143.603 57.4361 142.999 57.4361C141.91 57.4361 140.934 57.71 140.072 58.2578C139.217 58.8056 138.54 59.6089 138.041 60.6676C137.549 61.7263 137.303 63.0189 137.303 64.5455C137.303 66.0843 137.549 67.383 138.041 68.4418C138.54 69.5005 139.22 70.3007 140.082 70.8423C140.943 71.384 141.913 71.6548 142.99 71.6548C143.587 71.6548 144.153 71.5748 144.689 71.4148C145.231 71.2486 145.72 71.0054 146.157 70.6854C146.594 70.3653 146.963 69.9744 147.265 69.5128C147.573 69.045 147.785 68.5095 147.902 67.9062L150.783 67.9155C150.629 68.8449 150.33 69.7005 149.887 70.4822C149.45 71.2578 148.887 71.9287 148.197 72.495C147.514 73.0552 146.732 73.4891 145.852 73.7969C144.972 74.1046 144.012 74.2585 142.972 74.2585C141.334 74.2585 139.875 73.8707 138.595 73.0952C137.315 72.3134 136.305 71.1963 135.567 69.7436C134.834 68.291 134.468 66.5582 134.468 64.5455C134.468 62.5265 134.837 60.7938 135.576 59.3473C136.315 57.8946 137.324 56.7805 138.604 56.005C139.885 55.2232 141.34 54.8324 142.972 54.8324C143.975 54.8324 144.911 54.977 145.778 55.2663C146.652 55.5495 147.437 55.968 148.133 56.522C148.828 57.0698 149.404 57.7408 149.859 58.5348C150.315 59.3227 150.623 60.2244 150.783 61.2401ZM159.949 74.2862C158.619 74.2862 157.459 73.9815 156.468 73.3722C155.477 72.7628 154.707 71.9103 154.16 70.8146C153.612 69.719 153.338 68.4387 153.338 66.9737C153.338 65.5026 153.612 64.2161 154.16 63.1143C154.707 62.0125 155.477 61.157 156.468 60.5476C157.459 59.9382 158.619 59.6335 159.949 59.6335C161.278 59.6335 162.439 59.9382 163.43 60.5476C164.421 61.157 165.19 62.0125 165.738 63.1143C166.286 64.2161 166.559 65.5026 166.559 66.9737C166.559 68.4387 166.286 69.719 165.738 70.8146C165.19 71.9103 164.421 72.7628 163.43 73.3722C162.439 73.9815 161.278 74.2862 159.949 74.2862ZM159.958 71.9688C160.82 71.9688 161.534 71.741 162.1 71.2855C162.666 70.83 163.085 70.2237 163.356 69.4666C163.633 68.7095 163.771 67.8755 163.771 66.9645C163.771 66.0597 163.633 65.2287 163.356 64.4716C163.085 63.7083 162.666 63.0959 162.1 62.6342C161.534 62.1726 160.82 61.9418 159.958 61.9418C159.09 61.9418 158.37 62.1726 157.797 62.6342C157.231 63.0959 156.809 63.7083 156.532 64.4716C156.262 65.2287 156.126 66.0597 156.126 66.9645C156.126 67.8755 156.262 68.7095 156.532 69.4666C156.809 70.2237 157.231 70.83 157.797 71.2855C158.37 71.741 159.09 71.9688 159.958 71.9688ZM178.625 68.1186V59.8182H181.395V74H178.68V71.544H178.532C178.206 72.3011 177.683 72.9321 176.963 73.4368C176.249 73.9354 175.359 74.1847 174.294 74.1847C173.383 74.1847 172.577 73.9846 171.875 73.5845C171.18 73.1783 170.632 72.5781 170.232 71.7841C169.838 70.9901 169.641 70.0083 169.641 68.8388V59.8182H172.402V68.5064C172.402 69.4728 172.669 70.2422 173.205 70.8146C173.74 71.3871 174.436 71.6733 175.292 71.6733C175.809 71.6733 176.323 71.544 176.833 71.2855C177.35 71.027 177.778 70.6361 178.117 70.1129C178.462 69.5897 178.631 68.925 178.625 68.1186ZM187.865 65.5795V74H185.104V59.8182H187.754V62.1264H187.929C188.255 61.3755 188.766 60.7723 189.462 60.3168C190.164 59.8613 191.047 59.6335 192.112 59.6335C193.078 59.6335 193.924 59.8366 194.651 60.2429C195.377 60.643 195.94 61.2401 196.34 62.0341C196.74 62.8281 196.941 63.8099 196.941 64.9794V74H194.18V65.3118C194.18 64.2839 193.912 63.4806 193.377 62.902C192.841 62.3172 192.106 62.0249 191.17 62.0249C190.53 62.0249 189.96 62.1634 189.462 62.4403C188.969 62.7173 188.579 63.1236 188.289 63.6591C188.006 64.1884 187.865 64.8286 187.865 65.5795ZM207.263 59.8182V62.0341H199.517V59.8182H207.263ZM201.594 56.4205H204.355V69.8359C204.355 70.3714 204.435 70.7746 204.595 71.0455C204.755 71.3101 204.961 71.4917 205.213 71.5902C205.472 71.6825 205.752 71.7287 206.053 71.7287C206.275 71.7287 206.469 71.7133 206.635 71.6825C206.801 71.6518 206.931 71.6271 207.023 71.6087L207.521 73.8892C207.361 73.9508 207.134 74.0123 206.838 74.0739C206.543 74.1416 206.173 74.1785 205.73 74.1847C205.004 74.197 204.327 74.0677 203.699 73.7969C203.071 73.526 202.563 73.1075 202.176 72.5412C201.788 71.9749 201.594 71.264 201.594 70.4084V56.4205ZM210.317 74V59.8182H212.985V62.071H213.133C213.391 61.3078 213.847 60.7076 214.499 60.2706C215.158 59.8274 215.903 59.6058 216.734 59.6058C216.906 59.6058 217.109 59.612 217.343 59.6243C217.583 59.6366 217.771 59.652 217.906 59.6705V62.3111C217.795 62.2803 217.598 62.2464 217.315 62.2095C217.032 62.1664 216.749 62.1449 216.466 62.1449C215.813 62.1449 215.232 62.2834 214.721 62.5604C214.216 62.8312 213.816 63.2098 213.521 63.696C213.225 64.1761 213.077 64.724 213.077 65.3395V74H210.317ZM222.472 79.3182C222.06 79.3182 221.684 79.2843 221.346 79.2166C221.007 79.1551 220.755 79.0874 220.588 79.0135L221.253 76.7514C221.758 76.8868 222.207 76.9453 222.601 76.9268C222.995 76.9084 223.343 76.7607 223.645 76.4837C223.952 76.2067 224.223 75.7543 224.457 75.1264L224.799 74.1847L219.61 59.8182H222.564L226.156 70.8239H226.304L229.895 59.8182H232.859L227.015 75.8928C226.744 76.6314 226.399 77.2562 225.98 77.767C225.562 78.2841 225.063 78.6719 224.485 78.9304C223.906 79.1889 223.235 79.3182 222.472 79.3182ZM135.077 105V86.0909H142.002C143.344 86.0909 144.455 86.3125 145.335 86.7557C146.215 87.1927 146.874 87.7867 147.311 88.5376C147.748 89.2824 147.967 90.1226 147.967 91.0582C147.967 91.8461 147.822 92.5109 147.533 93.0526C147.243 93.5881 146.856 94.0189 146.369 94.3452C145.889 94.6652 145.36 94.8991 144.781 95.0469V95.2315C145.409 95.2623 146.022 95.4654 146.619 95.8409C147.222 96.2102 147.72 96.7365 148.114 97.4197C148.508 98.103 148.705 98.9339 148.705 99.9126C148.705 100.879 148.478 101.747 148.022 102.516C147.573 103.28 146.877 103.886 145.935 104.335C144.994 104.778 143.79 105 142.325 105H135.077ZM137.93 102.553H142.048C143.415 102.553 144.393 102.289 144.984 101.759C145.575 101.23 145.871 100.568 145.871 99.7741C145.871 99.1771 145.72 98.6293 145.418 98.1307C145.117 97.6321 144.686 97.2351 144.126 96.9396C143.572 96.6442 142.913 96.4964 142.15 96.4964H137.93V102.553ZM137.93 94.2713H141.753C142.393 94.2713 142.969 94.1482 143.479 93.902C143.996 93.6558 144.406 93.3111 144.707 92.8679C145.015 92.4186 145.169 91.8892 145.169 91.2798C145.169 90.4981 144.895 89.8426 144.347 89.3132C143.799 88.7839 142.959 88.5192 141.827 88.5192H137.93V94.2713ZM155.995 105.314C155.096 105.314 154.283 105.148 153.557 104.815C152.831 104.477 152.255 103.987 151.831 103.347C151.412 102.707 151.203 101.922 151.203 100.993C151.203 100.193 151.357 99.5341 151.664 99.017C151.972 98.5 152.388 98.0907 152.911 97.7891C153.434 97.4875 154.019 97.2597 154.665 97.1058C155.311 96.9519 155.97 96.835 156.641 96.755C157.49 96.6565 158.18 96.5765 158.709 96.5149C159.239 96.4472 159.623 96.3395 159.863 96.1918C160.103 96.044 160.223 95.804 160.223 95.4716V95.407C160.223 94.6006 159.996 93.9759 159.54 93.5327C159.091 93.0895 158.42 92.8679 157.527 92.8679C156.598 92.8679 155.865 93.0741 155.33 93.4865C154.801 93.8928 154.434 94.3452 154.231 94.8438L151.637 94.2528C151.944 93.3911 152.394 92.6955 152.985 92.1662C153.582 91.6307 154.268 91.2429 155.044 91.0028C155.819 90.7566 156.635 90.6335 157.49 90.6335C158.057 90.6335 158.657 90.7012 159.291 90.8366C159.931 90.9659 160.528 91.206 161.082 91.5568C161.642 91.9077 162.101 92.4093 162.458 93.0618C162.815 93.7081 162.993 94.5483 162.993 95.5824V105H160.297V103.061H160.186C160.008 103.418 159.74 103.769 159.383 104.114C159.026 104.458 158.568 104.745 158.007 104.972C157.447 105.2 156.776 105.314 155.995 105.314ZM156.595 103.098C157.358 103.098 158.011 102.947 158.552 102.646C159.1 102.344 159.516 101.95 159.799 101.464C160.088 100.971 160.233 100.445 160.233 99.8849V98.0568C160.134 98.1553 159.943 98.2476 159.66 98.3338C159.383 98.4138 159.066 98.4846 158.709 98.5462C158.352 98.6016 158.004 98.6539 157.666 98.7031C157.327 98.7462 157.044 98.7831 156.816 98.8139C156.281 98.8816 155.792 98.9955 155.348 99.1555C154.911 99.3156 154.56 99.5464 154.296 99.848C154.037 100.143 153.908 100.537 153.908 101.03C153.908 101.713 154.16 102.23 154.665 102.581C155.17 102.926 155.813 103.098 156.595 103.098ZM177.297 94.2805L174.795 94.7237C174.691 94.4036 174.524 94.099 174.297 93.8097C174.075 93.5204 173.773 93.2834 173.392 93.0987C173.01 92.9141 172.533 92.8217 171.961 92.8217C171.179 92.8217 170.527 92.9972 170.003 93.348C169.48 93.6927 169.219 94.139 169.219 94.6868C169.219 95.1607 169.394 95.5424 169.745 95.8317C170.096 96.121 170.662 96.358 171.444 96.5426L173.697 97.0597C175.001 97.3613 175.974 97.826 176.614 98.4538C177.254 99.0817 177.574 99.8973 177.574 100.901C177.574 101.75 177.328 102.507 176.836 103.172C176.349 103.83 175.669 104.348 174.795 104.723C173.927 105.098 172.921 105.286 171.776 105.286C170.188 105.286 168.892 104.948 167.889 104.271C166.886 103.587 166.27 102.618 166.042 101.362L168.711 100.956C168.877 101.652 169.219 102.178 169.736 102.535C170.253 102.886 170.927 103.061 171.758 103.061C172.662 103.061 173.386 102.873 173.927 102.498C174.469 102.116 174.74 101.652 174.74 101.104C174.74 100.661 174.574 100.288 174.241 99.9865C173.915 99.6849 173.413 99.4571 172.736 99.3033L170.336 98.777C169.012 98.4754 168.034 97.9953 167.4 97.3366C166.772 96.678 166.458 95.844 166.458 94.8345C166.458 93.9974 166.692 93.2649 167.16 92.6371C167.627 92.0092 168.274 91.5199 169.099 91.169C169.923 90.812 170.868 90.6335 171.933 90.6335C173.466 90.6335 174.672 90.9659 175.552 91.6307C176.433 92.2893 177.014 93.1726 177.297 94.2805ZM186.722 105.286C185.325 105.286 184.121 104.988 183.112 104.391C182.109 103.787 181.333 102.941 180.785 101.852C180.243 100.756 179.973 99.4725 179.973 98.0014C179.973 96.5488 180.243 95.2685 180.785 94.1605C181.333 93.0526 182.096 92.1877 183.075 91.5661C184.06 90.9444 185.211 90.6335 186.528 90.6335C187.328 90.6335 188.104 90.7659 188.855 91.0305C189.606 91.2952 190.28 91.7107 190.877 92.277C191.474 92.8433 191.945 93.5788 192.289 94.4837C192.634 95.3823 192.806 96.4749 192.806 97.7614V98.7401H181.533V96.6719H190.101C190.101 95.9455 189.953 95.3023 189.658 94.7422C189.363 94.1759 188.947 93.7296 188.412 93.4034C187.882 93.0772 187.261 92.9141 186.547 92.9141C185.771 92.9141 185.094 93.1049 184.515 93.4865C183.943 93.862 183.5 94.3544 183.186 94.9638C182.878 95.567 182.724 96.2225 182.724 96.9304V98.5462C182.724 99.4941 182.89 100.3 183.223 100.965C183.561 101.63 184.032 102.138 184.635 102.489C185.239 102.833 185.943 103.006 186.75 103.006C187.273 103.006 187.75 102.932 188.181 102.784C188.612 102.63 188.984 102.402 189.298 102.101C189.612 101.799 189.852 101.427 190.018 100.984L192.631 101.455C192.422 102.224 192.046 102.898 191.505 103.477C190.969 104.049 190.295 104.495 189.483 104.815C188.676 105.129 187.756 105.286 186.722 105.286ZM201.178 105.277C200.034 105.277 199.012 104.985 198.113 104.4C197.221 103.809 196.519 102.969 196.008 101.879C195.503 100.784 195.251 99.4695 195.251 97.9368C195.251 96.4041 195.506 95.093 196.017 94.0036C196.534 92.9141 197.242 92.08 198.141 91.5014C199.039 90.9228 200.058 90.6335 201.197 90.6335C202.077 90.6335 202.785 90.7812 203.32 91.0767C203.862 91.366 204.281 91.7045 204.576 92.0923C204.878 92.4801 205.112 92.8217 205.278 93.1172H205.444V86.0909H208.205V105H205.509V102.793H205.278C205.112 103.095 204.872 103.44 204.558 103.827C204.25 104.215 203.825 104.554 203.284 104.843C202.742 105.132 202.04 105.277 201.178 105.277ZM201.788 102.923C202.582 102.923 203.253 102.713 203.801 102.295C204.355 101.87 204.773 101.282 205.056 100.531C205.346 99.7803 205.49 98.9062 205.49 97.9091C205.49 96.9242 205.349 96.0625 205.066 95.3239C204.782 94.5852 204.367 94.0097 203.819 93.5973C203.271 93.1849 202.594 92.9787 201.788 92.9787C200.957 92.9787 200.264 93.1941 199.71 93.625C199.156 94.0559 198.738 94.6437 198.455 95.3885C198.178 96.1333 198.039 96.9735 198.039 97.9091C198.039 98.857 198.181 99.7095 198.464 100.467C198.747 101.224 199.166 101.824 199.72 102.267C200.28 102.704 200.969 102.923 201.788 102.923ZM219.247 105V86.0909H225.987C227.459 86.0909 228.677 86.3587 229.644 86.8942C230.61 87.4297 231.333 88.1622 231.813 89.0916C232.294 90.0149 232.534 91.0552 232.534 92.2124C232.534 93.3757 232.29 94.4221 231.804 95.3516C231.324 96.2749 230.598 97.0073 229.625 97.549C228.659 98.0845 227.443 98.3523 225.978 98.3523H221.343V95.9332H225.72C226.649 95.9332 227.403 95.7732 227.982 95.4531C228.56 95.1269 228.985 94.6837 229.256 94.1236C229.527 93.5634 229.662 92.9264 229.662 92.2124C229.662 91.4983 229.527 90.8643 229.256 90.3104C228.985 89.7564 228.557 89.3224 227.972 89.0085C227.394 88.6946 226.631 88.5376 225.683 88.5376H222.1V105H219.247ZM235.657 105V90.8182H238.325V93.071H238.473C238.731 92.3078 239.187 91.7076 239.839 91.2706C240.498 90.8274 241.243 90.6058 242.074 90.6058C242.246 90.6058 242.449 90.612 242.683 90.6243C242.923 90.6366 243.111 90.652 243.246 90.6705V93.3111C243.135 93.2803 242.938 93.2464 242.655 93.2095C242.372 93.1664 242.089 93.1449 241.806 93.1449C241.153 93.1449 240.572 93.2834 240.061 93.5604C239.556 93.8312 239.156 94.2098 238.86 94.696C238.565 95.1761 238.417 95.724 238.417 96.3395V105H235.657ZM245.635 105V90.8182H248.396V105H245.635ZM247.029 88.63C246.549 88.63 246.137 88.4699 245.792 88.1499C245.454 87.8236 245.284 87.4358 245.284 86.9865C245.284 86.531 245.454 86.1432 245.792 85.8232C246.137 85.4969 246.549 85.3338 247.029 85.3338C247.509 85.3338 247.919 85.4969 248.257 85.8232C248.602 86.1432 248.774 86.531 248.774 86.9865C248.774 87.4358 248.602 87.8236 248.257 88.1499C247.919 88.4699 247.509 88.63 247.029 88.63ZM258.083 105.286C256.711 105.286 255.529 104.975 254.538 104.354C253.553 103.726 252.796 102.861 252.267 101.759C251.737 100.657 251.473 99.3956 251.473 97.9737C251.473 96.5334 251.743 95.2623 252.285 94.1605C252.827 93.0526 253.59 92.1877 254.575 91.5661C255.56 90.9444 256.72 90.6335 258.056 90.6335C259.133 90.6335 260.093 90.8336 260.936 91.2337C261.78 91.6276 262.46 92.1816 262.977 92.8956C263.5 93.6096 263.811 94.4437 263.909 95.3977H261.223C261.075 94.733 260.736 94.1605 260.207 93.6804C259.684 93.2003 258.982 92.9602 258.102 92.9602C257.333 92.9602 256.658 93.1634 256.08 93.5696C255.507 93.9697 255.061 94.5421 254.741 95.2869C254.421 96.0256 254.261 96.8996 254.261 97.9091C254.261 98.9432 254.418 99.8357 254.732 100.587C255.046 101.338 255.489 101.919 256.061 102.332C256.64 102.744 257.32 102.95 258.102 102.95C258.625 102.95 259.099 102.855 259.524 102.664C259.955 102.467 260.315 102.187 260.604 101.824C260.9 101.461 261.106 101.024 261.223 100.513H263.909C263.811 101.43 263.512 102.249 263.014 102.969C262.515 103.689 261.847 104.255 261.01 104.668C260.179 105.08 259.204 105.286 258.083 105.286ZM272.974 105.286C271.577 105.286 270.373 104.988 269.364 104.391C268.36 103.787 267.585 102.941 267.037 101.852C266.495 100.756 266.225 99.4725 266.225 98.0014C266.225 96.5488 266.495 95.2685 267.037 94.1605C267.585 93.0526 268.348 92.1877 269.327 91.5661C270.312 90.9444 271.463 90.6335 272.78 90.6335C273.58 90.6335 274.356 90.7659 275.107 91.0305C275.858 91.2952 276.532 91.7107 277.129 92.277C277.726 92.8433 278.197 93.5788 278.541 94.4837C278.886 95.3823 279.058 96.4749 279.058 97.7614V98.7401H267.785V96.6719H276.353C276.353 95.9455 276.205 95.3023 275.91 94.7422C275.615 94.1759 275.199 93.7296 274.664 93.4034C274.134 93.0772 273.512 92.9141 272.798 92.9141C272.023 92.9141 271.346 93.1049 270.767 93.4865C270.195 93.862 269.752 94.3544 269.438 94.9638C269.13 95.567 268.976 96.2225 268.976 96.9304V98.5462C268.976 99.4941 269.142 100.3 269.475 100.965C269.813 101.63 270.284 102.138 270.887 102.489C271.49 102.833 272.195 103.006 273.002 103.006C273.525 103.006 274.002 102.932 274.433 102.784C274.864 102.63 275.236 102.402 275.55 102.101C275.864 101.799 276.104 101.427 276.27 100.984L278.883 101.455C278.674 102.224 278.298 102.898 277.757 103.477C277.221 104.049 276.547 104.495 275.735 104.815C274.928 105.129 274.008 105.286 272.974 105.286Z" fill="#CF8900"/>
<g clip-path="url(#clip0_637_87)">
<path d="M83.2832 87.6411H96.7568L106.949 112.949H41.0508L51.2432 87.6411H64.7168" stroke="#CF8900" stroke-width="3" stroke-miterlimit="10" stroke-linecap="round" stroke-linejoin="round"/>
<path d="M95.1461 68.1971C95.1461 84.3323 75.4594 87.5976 73.9998 103.299C72.5402 87.5976 52.8535 84.3325 52.8535 68.1971C52.8535 56.519 62.3216 47.0508 73.9998 47.0508C85.678 47.0508 95.1461 56.519 95.1461 68.1971Z" stroke="#CF8900" stroke-width="3" stroke-miterlimit="10" stroke-linecap="round" stroke-linejoin="round"/>
<path d="M74 82C81.732 82 88 75.732 88 68C88 60.268 81.732 54 74 54C66.268 54 60 60.268 60 68C60 75.732 66.268 82 74 82Z" fill="#FEEDCC" stroke="#CF8900" stroke-width="3" stroke-miterlimit="10" stroke-linecap="round" stroke-linejoin="round"/>
<path d="M76.2053 63.6172C76.2053 63.6172 74.9502 62.5804 73.0156 63.1023C71.2392 63.5816 70.7981 65.7585 72.0052 66.6065C72.6983 67.0934 73.7413 67.4937 75.1469 67.9388C78.2928 68.9348 77.1299 72.9084 73.9297 72.9274C72.6809 72.9348 72.0971 72.8638 71 72.2211M73.93 74L73.9297 72.9274ZM73.93 62.9594V62Z" fill="#FEEDCC"/>
<path d="M76.2053 63.6172C76.2053 63.6172 74.9502 62.5804 73.0156 63.1023C71.2392 63.5816 70.7981 65.7585 72.0052 66.6065C72.6983 67.0934 73.7413 67.4937 75.1469 67.9388C78.2928 68.9348 77.1299 72.9084 73.9297 72.9274M73.9297 72.9274C72.6809 72.9348 72.0971 72.8638 71 72.2211M73.9297 72.9274L73.93 74M73.93 62.9594V62" stroke="#CF8900" stroke-width="3" stroke-miterlimit="10" stroke-linecap="round" stroke-linejoin="round"/>
</g>
<defs>
<clipPath id="clip0_637_87">
<rect width="70" height="70" fill="white" transform="translate(39 45)"/>
</clipPath>
</defs>
</svg>
