<svg width="320" height="160" viewBox="0 0 320 160" fill="none" xmlns="http://www.w3.org/2000/svg">
<rect width="320" height="160" fill="#FEEDCC"/>
<path d="M125.077 74V55.0909H136.803V57.5469H127.93V63.3082H135.963V65.755H127.93V74H125.077ZM144.167 74.3139C143.268 74.3139 142.455 74.1477 141.729 73.8153C141.003 73.4768 140.427 72.9875 140.002 72.3473C139.584 71.7071 139.375 70.9223 139.375 69.9929C139.375 69.1927 139.529 68.5341 139.836 68.017C140.144 67.5 140.56 67.0907 141.083 66.7891C141.606 66.4875 142.191 66.2597 142.837 66.1058C143.483 65.9519 144.142 65.835 144.813 65.755C145.662 65.6565 146.352 65.5765 146.881 65.5149C147.41 65.4472 147.795 65.3395 148.035 65.1918C148.275 65.044 148.395 64.804 148.395 64.4716V64.407C148.395 63.6006 148.167 62.9759 147.712 62.5327C147.263 62.0895 146.592 61.8679 145.699 61.8679C144.77 61.8679 144.037 62.0741 143.502 62.4865C142.972 62.8928 142.606 63.3452 142.403 63.8438L139.809 63.2528C140.116 62.3911 140.566 61.6955 141.157 61.1662C141.754 60.6307 142.44 60.2429 143.216 60.0028C143.991 59.7566 144.807 59.6335 145.662 59.6335C146.229 59.6335 146.829 59.7012 147.463 59.8366C148.103 59.9659 148.7 60.206 149.254 60.5568C149.814 60.9077 150.273 61.4093 150.63 62.0618C150.987 62.7081 151.165 63.5483 151.165 64.5824V74H148.469V72.0611H148.358C148.18 72.4181 147.912 72.7689 147.555 73.1136C147.198 73.4583 146.739 73.7446 146.179 73.9723C145.619 74.2 144.948 74.3139 144.167 74.3139ZM144.767 72.098C145.53 72.098 146.182 71.9472 146.724 71.6456C147.272 71.344 147.687 70.95 147.971 70.4638C148.26 69.9714 148.404 69.4451 148.404 68.8849V67.0568C148.306 67.1553 148.115 67.2476 147.832 67.3338C147.555 67.4138 147.238 67.4846 146.881 67.5462C146.524 67.6016 146.176 67.6539 145.838 67.7031C145.499 67.7462 145.216 67.7831 144.988 67.8139C144.453 67.8816 143.963 67.9955 143.52 68.1555C143.083 68.3156 142.732 68.5464 142.468 68.848C142.209 69.1435 142.08 69.5374 142.08 70.0298C142.08 70.7131 142.332 71.2301 142.837 71.581C143.342 71.9257 143.985 72.098 144.767 72.098ZM160.816 74.2862C159.443 74.2862 158.261 73.9754 157.27 73.3537C156.286 72.7259 155.528 71.861 154.999 70.7592C154.47 69.6574 154.205 68.3956 154.205 66.9737C154.205 65.5334 154.476 64.2623 155.018 63.1605C155.559 62.0526 156.323 61.1877 157.307 60.5661C158.292 59.9444 159.452 59.6335 160.788 59.6335C161.865 59.6335 162.826 59.8336 163.669 60.2337C164.512 60.6276 165.192 61.1816 165.709 61.8956C166.233 62.6096 166.543 63.4437 166.642 64.3977H163.955C163.807 63.733 163.469 63.1605 162.939 62.6804C162.416 62.2003 161.715 61.9602 160.834 61.9602C160.065 61.9602 159.391 62.1634 158.812 62.5696C158.24 62.9697 157.794 63.5421 157.474 64.2869C157.153 65.0256 156.993 65.8996 156.993 66.9091C156.993 67.9432 157.15 68.8357 157.464 69.5866C157.778 70.3376 158.221 70.9193 158.794 71.3317C159.372 71.7441 160.053 71.9503 160.834 71.9503C161.358 71.9503 161.831 71.8549 162.256 71.6641C162.687 71.4671 163.047 71.187 163.336 70.8239C163.632 70.4607 163.838 70.0237 163.955 69.5128H166.642C166.543 70.4299 166.245 71.2486 165.746 71.9688C165.248 72.6889 164.58 73.2552 163.743 73.6676C162.912 74.08 161.936 74.2862 160.816 74.2862ZM175.706 74.2862C174.309 74.2862 173.106 73.9877 172.096 73.3906C171.093 72.7874 170.317 71.9411 169.77 70.8516C169.228 69.7559 168.957 68.4725 168.957 67.0014C168.957 65.5488 169.228 64.2685 169.77 63.1605C170.317 62.0526 171.081 61.1877 172.059 60.5661C173.044 59.9444 174.195 59.6335 175.512 59.6335C176.313 59.6335 177.088 59.7659 177.839 60.0305C178.59 60.2952 179.264 60.7107 179.861 61.277C180.458 61.8433 180.929 62.5788 181.274 63.4837C181.618 64.3823 181.791 65.4749 181.791 66.7614V67.7401H170.517V65.6719H179.086C179.086 64.9455 178.938 64.3023 178.642 63.7422C178.347 63.1759 177.931 62.7296 177.396 62.4034C176.867 62.0772 176.245 61.9141 175.531 61.9141C174.755 61.9141 174.078 62.1049 173.5 62.4865C172.927 62.862 172.484 63.3544 172.17 63.9638C171.862 64.567 171.708 65.2225 171.708 65.9304V67.5462C171.708 68.4941 171.875 69.3004 172.207 69.9652C172.546 70.63 173.016 71.1378 173.62 71.4886C174.223 71.8333 174.928 72.0057 175.734 72.0057C176.257 72.0057 176.734 71.9318 177.165 71.7841C177.596 71.6302 177.968 71.4025 178.282 71.1009C178.596 70.7992 178.836 70.4268 179.002 69.9837L181.615 70.4545C181.406 71.224 181.031 71.898 180.489 72.4766C179.953 73.049 179.279 73.4953 178.467 73.8153C177.661 74.1293 176.74 74.2862 175.706 74.2862ZM185.075 74V55.0909H187.836V62.1172H188.002C188.162 61.8217 188.393 61.4801 188.695 61.0923C188.996 60.7045 189.415 60.366 189.95 60.0767C190.486 59.7812 191.194 59.6335 192.074 59.6335C193.219 59.6335 194.241 59.9228 195.139 60.5014C196.038 61.08 196.743 61.9141 197.254 63.0036C197.771 64.093 198.029 65.4041 198.029 66.9368C198.029 68.4695 197.774 69.7836 197.263 70.8793C196.752 71.9687 196.05 72.8089 195.158 73.3999C194.265 73.9846 193.247 74.277 192.102 74.277C191.24 74.277 190.535 74.1323 189.987 73.843C189.446 73.5537 189.021 73.2152 188.713 72.8274C188.405 72.4396 188.169 72.0949 188.002 71.7933H187.771V74H185.075ZM187.781 66.9091C187.781 67.9062 187.925 68.7803 188.215 69.5312C188.504 70.2822 188.923 70.87 189.47 71.2947C190.018 71.7133 190.689 71.9226 191.483 71.9226C192.308 71.9226 192.997 71.7041 193.551 71.267C194.105 70.8239 194.524 70.2237 194.807 69.4666C195.096 68.7095 195.241 67.857 195.241 66.9091C195.241 65.9735 195.099 65.1333 194.816 64.3885C194.539 63.6437 194.121 63.0559 193.561 62.625C193.007 62.1941 192.314 61.9787 191.483 61.9787C190.683 61.9787 190.006 62.1849 189.452 62.5973C188.904 63.0097 188.489 63.5852 188.205 64.3239C187.922 65.0625 187.781 65.9242 187.781 66.9091ZM207.103 74.2862C205.773 74.2862 204.613 73.9815 203.622 73.3722C202.631 72.7628 201.862 71.9103 201.314 70.8146C200.766 69.719 200.492 68.4387 200.492 66.9737C200.492 65.5026 200.766 64.2161 201.314 63.1143C201.862 62.0125 202.631 61.157 203.622 60.5476C204.613 59.9382 205.773 59.6335 207.103 59.6335C208.433 59.6335 209.593 59.9382 210.584 60.5476C211.575 61.157 212.344 62.0125 212.892 63.1143C213.44 64.2161 213.714 65.5026 213.714 66.9737C213.714 68.4387 213.44 69.719 212.892 70.8146C212.344 71.9103 211.575 72.7628 210.584 73.3722C209.593 73.9815 208.433 74.2862 207.103 74.2862ZM207.112 71.9688C207.974 71.9688 208.688 71.741 209.254 71.2855C209.821 70.83 210.239 70.2237 210.51 69.4666C210.787 68.7095 210.925 67.8755 210.925 66.9645C210.925 66.0597 210.787 65.2287 210.51 64.4716C210.239 63.7083 209.821 63.0959 209.254 62.6342C208.688 62.1726 207.974 61.9418 207.112 61.9418C206.244 61.9418 205.524 62.1726 204.952 62.6342C204.385 63.0959 203.964 63.7083 203.687 64.4716C203.416 65.2287 203.281 66.0597 203.281 66.9645C203.281 67.8755 203.416 68.7095 203.687 69.4666C203.964 70.2237 204.385 70.83 204.952 71.2855C205.524 71.741 206.244 71.9688 207.112 71.9688ZM222.769 74.2862C221.439 74.2862 220.279 73.9815 219.288 73.3722C218.297 72.7628 217.528 71.9103 216.98 70.8146C216.432 69.719 216.158 68.4387 216.158 66.9737C216.158 65.5026 216.432 64.2161 216.98 63.1143C217.528 62.0125 218.297 61.157 219.288 60.5476C220.279 59.9382 221.439 59.6335 222.769 59.6335C224.099 59.6335 225.259 59.9382 226.25 60.5476C227.241 61.157 228.01 62.0125 228.558 63.1143C229.106 64.2161 229.38 65.5026 229.38 66.9737C229.38 68.4387 229.106 69.719 228.558 70.8146C228.01 71.9103 227.241 72.7628 226.25 73.3722C225.259 73.9815 224.099 74.2862 222.769 74.2862ZM222.778 71.9688C223.64 71.9688 224.354 71.741 224.92 71.2855C225.487 70.83 225.905 70.2237 226.176 69.4666C226.453 68.7095 226.591 67.8755 226.591 66.9645C226.591 66.0597 226.453 65.2287 226.176 64.4716C225.905 63.7083 225.487 63.0959 224.92 62.6342C224.354 62.1726 223.64 61.9418 222.778 61.9418C221.91 61.9418 221.19 62.1726 220.618 62.6342C220.051 63.0959 219.63 63.7083 219.353 64.4716C219.082 65.2287 218.947 66.0597 218.947 66.9645C218.947 67.8755 219.082 68.7095 219.353 69.4666C219.63 70.2237 220.051 70.83 220.618 71.2855C221.19 71.741 221.91 71.9688 222.778 71.9688ZM235 69.1896L234.982 65.8196H235.462L241.113 59.8182H244.418L237.973 66.6506H237.539L235 69.1896ZM232.461 74V55.0909H235.222V74H232.461ZM241.417 74L236.339 67.2599L238.241 65.3303L244.806 74H241.417ZM125.077 105V86.0909H131.817C133.289 86.0909 134.507 86.3587 135.474 86.8942C136.44 87.4297 137.163 88.1622 137.643 89.0916C138.124 90.0149 138.364 91.0552 138.364 92.2124C138.364 93.3757 138.121 94.4221 137.634 95.3516C137.154 96.2749 136.428 97.0073 135.455 97.549C134.489 98.0845 133.273 98.3523 131.808 98.3523H127.173V95.9332H131.55C132.479 95.9332 133.233 95.7732 133.812 95.4531C134.39 95.1269 134.815 94.6837 135.086 94.1236C135.357 93.5634 135.492 92.9264 135.492 92.2124C135.492 91.4983 135.357 90.8643 135.086 90.3104C134.815 89.7564 134.387 89.3224 133.803 89.0085C133.224 88.6946 132.461 88.5376 131.513 88.5376H127.93V105H125.077ZM141.487 105V90.8182H144.155V93.071H144.303C144.561 92.3078 145.017 91.7076 145.669 91.2706C146.328 90.8274 147.073 90.6058 147.904 90.6058C148.076 90.6058 148.279 90.612 148.513 90.6243C148.753 90.6366 148.941 90.652 149.076 90.6705V93.3111C148.965 93.2803 148.768 93.2464 148.485 93.2095C148.202 93.1664 147.919 93.1449 147.636 93.1449C146.983 93.1449 146.402 93.2834 145.891 93.5604C145.386 93.8312 144.986 94.2098 144.691 94.696C144.395 95.1761 144.247 95.724 144.247 96.3395V105H141.487ZM156.931 105.286C155.602 105.286 154.441 104.982 153.45 104.372C152.459 103.763 151.69 102.91 151.142 101.815C150.594 100.719 150.32 99.4387 150.32 97.9737C150.32 96.5026 150.594 95.2161 151.142 94.1143C151.69 93.0125 152.459 92.157 153.45 91.5476C154.441 90.9382 155.602 90.6335 156.931 90.6335C158.261 90.6335 159.421 90.9382 160.412 91.5476C161.403 92.157 162.172 93.0125 162.72 94.1143C163.268 95.2161 163.542 96.5026 163.542 97.9737C163.542 99.4387 163.268 100.719 162.72 101.815C162.172 102.91 161.403 103.763 160.412 104.372C159.421 104.982 158.261 105.286 156.931 105.286ZM156.94 102.969C157.802 102.969 158.516 102.741 159.082 102.286C159.649 101.83 160.067 101.224 160.338 100.467C160.615 99.7095 160.754 98.8755 160.754 97.9645C160.754 97.0597 160.615 96.2287 160.338 95.4716C160.067 94.7083 159.649 94.0959 159.082 93.6342C158.516 93.1726 157.802 92.9418 156.94 92.9418C156.072 92.9418 155.352 93.1726 154.78 93.6342C154.214 94.0959 153.792 94.7083 153.515 95.4716C153.244 96.2287 153.109 97.0597 153.109 97.9645C153.109 98.8755 153.244 99.7095 153.515 100.467C153.792 101.224 154.214 101.83 154.78 102.286C155.352 102.741 156.072 102.969 156.94 102.969ZM171.932 105.277C170.787 105.277 169.766 104.985 168.867 104.4C167.974 103.809 167.273 102.969 166.762 101.879C166.257 100.784 166.005 99.4695 166.005 97.9368C166.005 96.4041 166.26 95.093 166.771 94.0036C167.288 92.9141 167.996 92.08 168.895 91.5014C169.793 90.9228 170.812 90.6335 171.951 90.6335C172.831 90.6335 173.539 90.7812 174.074 91.0767C174.616 91.366 175.035 91.7045 175.33 92.0923C175.632 92.4801 175.866 92.8217 176.032 93.1172H176.198V86.0909H178.959V105H176.263V102.793H176.032C175.866 103.095 175.626 103.44 175.312 103.827C175.004 104.215 174.579 104.554 174.037 104.843C173.496 105.132 172.794 105.277 171.932 105.277ZM172.542 102.923C173.336 102.923 174.007 102.713 174.555 102.295C175.108 101.87 175.527 101.282 175.81 100.531C176.099 99.7803 176.244 98.9062 176.244 97.9091C176.244 96.9242 176.103 96.0625 175.819 95.3239C175.536 94.5852 175.121 94.0097 174.573 93.5973C174.025 93.1849 173.348 92.9787 172.542 92.9787C171.711 92.9787 171.018 93.1941 170.464 93.625C169.91 94.0559 169.492 94.6437 169.209 95.3885C168.932 96.1333 168.793 96.9735 168.793 97.9091C168.793 98.857 168.935 99.7095 169.218 100.467C169.501 101.224 169.92 101.824 170.474 102.267C171.034 102.704 171.723 102.923 172.542 102.923ZM191.882 99.1186V90.8182H194.652V105H191.938V102.544H191.79C191.464 103.301 190.941 103.932 190.221 104.437C189.507 104.935 188.617 105.185 187.552 105.185C186.641 105.185 185.835 104.985 185.133 104.585C184.438 104.178 183.89 103.578 183.49 102.784C183.096 101.99 182.899 101.008 182.899 99.8388V90.8182H185.659V99.5064C185.659 100.473 185.927 101.242 186.463 101.815C186.998 102.387 187.694 102.673 188.549 102.673C189.066 102.673 189.58 102.544 190.091 102.286C190.608 102.027 191.036 101.636 191.375 101.113C191.719 100.59 191.889 99.925 191.882 99.1186ZM204.335 105.286C202.963 105.286 201.781 104.975 200.79 104.354C199.805 103.726 199.048 102.861 198.519 101.759C197.989 100.657 197.725 99.3956 197.725 97.9737C197.725 96.5334 197.995 95.2623 198.537 94.1605C199.079 93.0526 199.842 92.1877 200.827 91.5661C201.812 90.9444 202.972 90.6335 204.308 90.6335C205.385 90.6335 206.345 90.8336 207.188 91.2337C208.032 91.6276 208.712 92.1816 209.229 92.8956C209.752 93.6096 210.063 94.4437 210.161 95.3977H207.475C207.327 94.733 206.988 94.1605 206.459 93.6804C205.936 93.2003 205.234 92.9602 204.354 92.9602C203.584 92.9602 202.91 93.1634 202.332 93.5696C201.759 93.9697 201.313 94.5421 200.993 95.2869C200.673 96.0256 200.513 96.8996 200.513 97.9091C200.513 98.9432 200.67 99.8357 200.984 100.587C201.298 101.338 201.741 101.919 202.313 102.332C202.892 102.744 203.572 102.95 204.354 102.95C204.877 102.95 205.351 102.855 205.776 102.664C206.207 102.467 206.567 102.187 206.856 101.824C207.151 101.461 207.358 101.024 207.475 100.513H210.161C210.063 101.43 209.764 102.249 209.266 102.969C208.767 103.689 208.099 104.255 207.262 104.668C206.431 105.08 205.456 105.286 204.335 105.286ZM219.734 90.8182V93.0341H211.987V90.8182H219.734ZM214.065 87.4205H216.825V100.836C216.825 101.371 216.905 101.775 217.065 102.045C217.225 102.31 217.432 102.492 217.684 102.59C217.942 102.683 218.223 102.729 218.524 102.729C218.746 102.729 218.94 102.713 219.106 102.683C219.272 102.652 219.401 102.627 219.494 102.609L219.992 104.889C219.832 104.951 219.604 105.012 219.309 105.074C219.013 105.142 218.644 105.179 218.201 105.185C217.475 105.197 216.798 105.068 216.17 104.797C215.542 104.526 215.034 104.107 214.646 103.541C214.259 102.975 214.065 102.264 214.065 101.408V87.4205ZM229.89 105V86.0909H236.63C238.101 86.0909 239.32 86.3587 240.286 86.8942C241.253 87.4297 241.976 88.1622 242.456 89.0916C242.936 90.0149 243.176 91.0552 243.176 92.2124C243.176 93.3757 242.933 94.4221 242.447 95.3516C241.967 96.2749 241.24 97.0073 240.268 97.549C239.301 98.0845 238.086 98.3523 236.621 98.3523H231.986V95.9332H236.362C237.292 95.9332 238.046 95.7732 238.624 95.4531C239.203 95.1269 239.628 94.6837 239.898 94.1236C240.169 93.5634 240.305 92.9264 240.305 92.2124C240.305 91.4983 240.169 90.8643 239.898 90.3104C239.628 89.7564 239.2 89.3224 238.615 89.0085C238.036 88.6946 237.273 88.5376 236.325 88.5376H232.743V105H229.89ZM246.299 105V90.8182H248.968V93.071H249.115C249.374 92.3078 249.829 91.7076 250.482 91.2706C251.14 90.8274 251.885 90.6058 252.716 90.6058C252.888 90.6058 253.092 90.612 253.325 90.6243C253.566 90.6366 253.753 90.652 253.889 90.6705V93.3111C253.778 93.2803 253.581 93.2464 253.298 93.2095C253.015 93.1664 252.731 93.1449 252.448 93.1449C251.796 93.1449 251.214 93.2834 250.703 93.5604C250.199 93.8312 249.798 94.2098 249.503 94.696C249.208 95.1761 249.06 95.724 249.06 96.3395V105H246.299ZM256.278 105V90.8182H259.038V105H256.278ZM257.672 88.63C257.192 88.63 256.779 88.4699 256.435 88.1499C256.096 87.8236 255.927 87.4358 255.927 86.9865C255.927 86.531 256.096 86.1432 256.435 85.8232C256.779 85.4969 257.192 85.3338 257.672 85.3338C258.152 85.3338 258.561 85.4969 258.9 85.8232C259.245 86.1432 259.417 86.531 259.417 86.9865C259.417 87.4358 259.245 87.8236 258.9 88.1499C258.561 88.4699 258.152 88.63 257.672 88.63ZM268.726 105.286C267.353 105.286 266.172 104.975 265.181 104.354C264.196 103.726 263.439 102.861 262.909 101.759C262.38 100.657 262.115 99.3956 262.115 97.9737C262.115 96.5334 262.386 95.2623 262.928 94.1605C263.469 93.0526 264.233 92.1877 265.218 91.5661C266.202 90.9444 267.363 90.6335 268.698 90.6335C269.776 90.6335 270.736 90.8336 271.579 91.2337C272.422 91.6276 273.102 92.1816 273.619 92.8956C274.143 93.6096 274.454 94.4437 274.552 95.3977H271.865C271.718 94.733 271.379 94.1605 270.85 93.6804C270.326 93.2003 269.625 92.9602 268.744 92.9602C267.975 92.9602 267.301 93.1634 266.722 93.5696C266.15 93.9697 265.704 94.5421 265.384 95.2869C265.064 96.0256 264.904 96.8996 264.904 97.9091C264.904 98.9432 265.061 99.8357 265.374 100.587C265.688 101.338 266.132 101.919 266.704 102.332C267.283 102.744 267.963 102.95 268.744 102.95C269.268 102.95 269.742 102.855 270.166 102.664C270.597 102.467 270.957 102.187 271.247 101.824C271.542 101.461 271.748 101.024 271.865 100.513H274.552C274.454 101.43 274.155 102.249 273.656 102.969C273.158 103.689 272.49 104.255 271.653 104.668C270.822 105.08 269.846 105.286 268.726 105.286ZM283.616 105.286C282.219 105.286 281.016 104.988 280.006 104.391C279.003 103.787 278.228 102.941 277.68 101.852C277.138 100.756 276.867 99.4725 276.867 98.0014C276.867 96.5488 277.138 95.2685 277.68 94.1605C278.228 93.0526 278.991 92.1877 279.969 91.5661C280.954 90.9444 282.105 90.6335 283.423 90.6335C284.223 90.6335 284.998 90.7659 285.749 91.0305C286.5 91.2952 287.174 91.7107 287.771 92.277C288.368 92.8433 288.839 93.5788 289.184 94.4837C289.529 95.3823 289.701 96.4749 289.701 97.7614V98.7401H278.428V96.6719H286.996C286.996 95.9455 286.848 95.3023 286.553 94.7422C286.257 94.1759 285.842 93.7296 285.306 93.4034C284.777 93.0772 284.155 92.9141 283.441 92.9141C282.665 92.9141 281.988 93.1049 281.41 93.4865C280.837 93.862 280.394 94.3544 280.08 94.9638C279.772 95.567 279.619 96.2225 279.619 96.9304V98.5462C279.619 99.4941 279.785 100.3 280.117 100.965C280.456 101.63 280.927 102.138 281.53 102.489C282.133 102.833 282.838 103.006 283.644 103.006C284.167 103.006 284.644 102.932 285.075 102.784C285.506 102.63 285.879 102.402 286.192 102.101C286.506 101.799 286.746 101.427 286.913 100.984L289.526 101.455C289.316 102.224 288.941 102.898 288.399 103.477C287.864 104.049 287.19 104.495 286.377 104.815C285.571 105.129 284.651 105.286 283.616 105.286Z" fill="#CF8900"/>
<path d="M77.9336 98H37.0664C34.8206 98 33 96.1794 33 93.9336V53.0664C33 50.8206 34.8206 49 37.0664 49H77.9336C80.1795 49 82 50.8206 82 53.0664V93.9336C82 96.1794 80.1795 98 77.9336 98Z" stroke="#CF8900" stroke-width="3" stroke-miterlimit="10" stroke-linecap="round" stroke-linejoin="round"/>
<path d="M66.087 65.2V57H61.3043C56.0216 57 51.7391 61.589 51.7391 67.25V74.425H46V82.625H51.7391V98H59.3913V82.625H66.087L68 74.425H59.3913V67.25C59.3913 66.1178 60.2478 65.2 61.3043 65.2H66.087Z" stroke="#CF8900" stroke-width="3" stroke-miterlimit="10" stroke-linecap="round" stroke-linejoin="round"/>
<path d="M83 115C91.8366 115 99 107.837 99 99C99 90.1634 91.8366 83 83 83C74.1634 83 67 90.1634 67 99C67 107.837 74.1634 115 83 115Z" fill="#FEEDCC" stroke="#CF8900" stroke-width="3" stroke-miterlimit="10" stroke-linecap="round" stroke-linejoin="round"/>
<path d="M85.5382 93.5405C85.5382 93.5405 84.1378 92.2489 81.9793 92.8991C79.9973 93.4961 79.5052 96.208 80.852 97.2644C81.6254 97.871 82.789 98.3697 84.3573 98.9241C87.8673 100.165 86.5698 105.115 82.9993 105.139C81.6059 105.148 80.9545 105.059 79.7305 104.259M82.9996 106.475L82.9993 105.139ZM82.9996 92.7211V91.5259Z" fill="#FEEDCC"/>
<path d="M85.5382 93.5405C85.5382 93.5405 84.1378 92.2489 81.9793 92.8991C79.9973 93.4961 79.5052 96.208 80.852 97.2644C81.6254 97.871 82.789 98.3697 84.3573 98.9241C87.8673 100.165 86.5698 105.115 82.9993 105.139M82.9993 105.139C81.6059 105.148 80.9545 105.059 79.7305 104.259M82.9993 105.139L82.9996 106.475M82.9996 92.7211V91.5259" stroke="#CF8900" stroke-width="3" stroke-miterlimit="10" stroke-linecap="round" stroke-linejoin="round"/>
</svg>
