<svg width="320" height="160" viewBox="0 0 320 160" fill="none" xmlns="http://www.w3.org/2000/svg">
<rect width="320" height="160" fill="#FEEDCC"/>
<path d="M160.077 74V55.0909H171.933V57.5469H162.93V63.3082H171.314V65.755H162.93V71.544H172.043V74H160.077ZM177.701 59.8182L180.831 65.3395L183.988 59.8182H187.008L182.585 66.9091L187.045 74H184.025L180.831 68.7003L177.645 74H174.617L179.03 66.9091L174.672 59.8182H177.701ZM196.462 59.8182V62.0341H188.716V59.8182H196.462ZM190.793 56.4205H193.554V69.8359C193.554 70.3714 193.634 70.7746 193.794 71.0455C193.954 71.3101 194.16 71.4917 194.412 71.5902C194.671 71.6825 194.951 71.7287 195.253 71.7287C195.474 71.7287 195.668 71.7133 195.834 71.6825C196.001 71.6518 196.13 71.6271 196.222 71.6087L196.721 73.8892C196.561 73.9508 196.333 74.0123 196.037 74.0739C195.742 74.1416 195.373 74.1785 194.93 74.1847C194.203 74.197 193.526 74.0677 192.898 73.7969C192.27 73.526 191.763 73.1075 191.375 72.5412C190.987 71.9749 190.793 71.264 190.793 70.4084V56.4205ZM199.516 74V59.8182H202.184V62.071H202.332C202.591 61.3078 203.046 60.7076 203.699 60.2706C204.357 59.8274 205.102 59.6058 205.933 59.6058C206.105 59.6058 206.308 59.612 206.542 59.6243C206.782 59.6366 206.97 59.652 207.105 59.6705V62.3111C206.995 62.2803 206.798 62.2464 206.515 62.2095C206.231 62.1664 205.948 62.1449 205.665 62.1449C205.013 62.1449 204.431 62.2834 203.92 62.5604C203.415 62.8312 203.015 63.2098 202.72 63.696C202.424 64.1761 202.277 64.724 202.277 65.3395V74H199.516ZM213.495 74.3139C212.596 74.3139 211.783 74.1477 211.057 73.8153C210.331 73.4768 209.755 72.9875 209.331 72.3473C208.912 71.7071 208.703 70.9223 208.703 69.9929C208.703 69.1927 208.857 68.5341 209.164 68.017C209.472 67.5 209.888 67.0907 210.411 66.7891C210.934 66.4875 211.519 66.2597 212.165 66.1058C212.811 65.9519 213.47 65.835 214.141 65.755C214.99 65.6565 215.68 65.5765 216.209 65.5149C216.739 65.4472 217.123 65.3395 217.363 65.1918C217.603 65.044 217.723 64.804 217.723 64.4716V64.407C217.723 63.6006 217.496 62.9759 217.04 62.5327C216.591 62.0895 215.92 61.8679 215.027 61.8679C214.098 61.8679 213.365 62.0741 212.83 62.4865C212.301 62.8928 211.934 63.3452 211.731 63.8438L209.137 63.2528C209.444 62.3911 209.894 61.6955 210.485 61.1662C211.082 60.6307 211.768 60.2429 212.544 60.0028C213.319 59.7566 214.135 59.6335 214.99 59.6335C215.557 59.6335 216.157 59.7012 216.791 59.8366C217.431 59.9659 218.028 60.206 218.582 60.5568C219.142 60.9077 219.601 61.4093 219.958 62.0618C220.315 62.7081 220.493 63.5483 220.493 64.5824V74H217.797V72.0611H217.686C217.508 72.4181 217.24 72.7689 216.883 73.1136C216.526 73.4583 216.068 73.7446 215.507 73.9723C214.947 74.2 214.276 74.3139 213.495 74.3139ZM214.095 72.098C214.858 72.098 215.511 71.9472 216.052 71.6456C216.6 71.344 217.016 70.95 217.299 70.4638C217.588 69.9714 217.733 69.4451 217.733 68.8849V67.0568C217.634 67.1553 217.443 67.2476 217.16 67.3338C216.883 67.4138 216.566 67.4846 216.209 67.5462C215.852 67.6016 215.504 67.6539 215.166 67.7031C214.827 67.7462 214.544 67.7831 214.316 67.8139C213.781 67.8816 213.292 67.9955 212.848 68.1555C212.411 68.3156 212.06 68.5464 211.796 68.848C211.537 69.1435 211.408 69.5374 211.408 70.0298C211.408 70.7131 211.66 71.2301 212.165 71.581C212.67 71.9257 213.313 72.098 214.095 72.098ZM160.077 105V86.0909H166.817C168.289 86.0909 169.507 86.3587 170.474 86.8942C171.44 87.4297 172.163 88.1622 172.643 89.0916C173.124 90.0149 173.364 91.0552 173.364 92.2124C173.364 93.3757 173.121 94.4221 172.634 95.3516C172.154 96.2749 171.428 97.0073 170.455 97.549C169.489 98.0845 168.273 98.3523 166.808 98.3523H162.173V95.9332H166.55C167.479 95.9332 168.233 95.7732 168.812 95.4531C169.39 95.1269 169.815 94.6837 170.086 94.1236C170.357 93.5634 170.492 92.9264 170.492 92.2124C170.492 91.4983 170.357 90.8643 170.086 90.3104C169.815 89.7564 169.387 89.3224 168.803 89.0085C168.224 88.6946 167.461 88.5376 166.513 88.5376H162.93V105H160.077ZM176.487 105V90.8182H179.155V93.071H179.303C179.561 92.3078 180.017 91.7076 180.669 91.2706C181.328 90.8274 182.073 90.6058 182.904 90.6058C183.076 90.6058 183.279 90.612 183.513 90.6243C183.753 90.6366 183.941 90.652 184.076 90.6705V93.3111C183.965 93.2803 183.768 93.2464 183.485 93.2095C183.202 93.1664 182.919 93.1449 182.636 93.1449C181.983 93.1449 181.402 93.2834 180.891 93.5604C180.386 93.8312 179.986 94.2098 179.691 94.696C179.395 95.1761 179.247 95.724 179.247 96.3395V105H176.487ZM191.931 105.286C190.602 105.286 189.441 104.982 188.45 104.372C187.459 103.763 186.69 102.91 186.142 101.815C185.594 100.719 185.32 99.4387 185.32 97.9737C185.32 96.5026 185.594 95.2161 186.142 94.1143C186.69 93.0125 187.459 92.157 188.45 91.5476C189.441 90.9382 190.602 90.6335 191.931 90.6335C193.261 90.6335 194.421 90.9382 195.412 91.5476C196.403 92.157 197.172 93.0125 197.72 94.1143C198.268 95.2161 198.542 96.5026 198.542 97.9737C198.542 99.4387 198.268 100.719 197.72 101.815C197.172 102.91 196.403 103.763 195.412 104.372C194.421 104.982 193.261 105.286 191.931 105.286ZM191.94 102.969C192.802 102.969 193.516 102.741 194.082 102.286C194.649 101.83 195.067 101.224 195.338 100.467C195.615 99.7095 195.754 98.8755 195.754 97.9645C195.754 97.0597 195.615 96.2287 195.338 95.4716C195.067 94.7083 194.649 94.0959 194.082 93.6342C193.516 93.1726 192.802 92.9418 191.94 92.9418C191.072 92.9418 190.352 93.1726 189.78 93.6342C189.214 94.0959 188.792 94.7083 188.515 95.4716C188.244 96.2287 188.109 97.0597 188.109 97.9645C188.109 98.8755 188.244 99.7095 188.515 100.467C188.792 101.224 189.214 101.83 189.78 102.286C190.352 102.741 191.072 102.969 191.94 102.969ZM206.932 105.277C205.787 105.277 204.766 104.985 203.867 104.4C202.974 103.809 202.273 102.969 201.762 101.879C201.257 100.784 201.005 99.4695 201.005 97.9368C201.005 96.4041 201.26 95.093 201.771 94.0036C202.288 92.9141 202.996 92.08 203.895 91.5014C204.793 90.9228 205.812 90.6335 206.951 90.6335C207.831 90.6335 208.539 90.7812 209.074 91.0767C209.616 91.366 210.035 91.7045 210.33 92.0923C210.632 92.4801 210.866 92.8217 211.032 93.1172H211.198V86.0909H213.959V105H211.263V102.793H211.032C210.866 103.095 210.626 103.44 210.312 103.827C210.004 104.215 209.579 104.554 209.037 104.843C208.496 105.132 207.794 105.277 206.932 105.277ZM207.542 102.923C208.336 102.923 209.007 102.713 209.555 102.295C210.108 101.87 210.527 101.282 210.81 100.531C211.099 99.7803 211.244 98.9062 211.244 97.9091C211.244 96.9242 211.103 96.0625 210.819 95.3239C210.536 94.5852 210.121 94.0097 209.573 93.5973C209.025 93.1849 208.348 92.9787 207.542 92.9787C206.711 92.9787 206.018 93.1941 205.464 93.625C204.91 94.0559 204.492 94.6437 204.209 95.3885C203.932 96.1333 203.793 96.9735 203.793 97.9091C203.793 98.857 203.935 99.7095 204.218 100.467C204.501 101.224 204.92 101.824 205.474 102.267C206.034 102.704 206.723 102.923 207.542 102.923ZM226.882 99.1186V90.8182H229.652V105H226.938V102.544H226.79C226.464 103.301 225.941 103.932 225.221 104.437C224.507 104.935 223.617 105.185 222.552 105.185C221.641 105.185 220.835 104.985 220.133 104.585C219.438 104.178 218.89 103.578 218.49 102.784C218.096 101.99 217.899 101.008 217.899 99.8388V90.8182H220.659V99.5064C220.659 100.473 220.927 101.242 221.463 101.815C221.998 102.387 222.694 102.673 223.549 102.673C224.066 102.673 224.58 102.544 225.091 102.286C225.608 102.027 226.036 101.636 226.375 101.113C226.719 100.59 226.889 99.925 226.882 99.1186ZM239.335 105.286C237.963 105.286 236.781 104.975 235.79 104.354C234.805 103.726 234.048 102.861 233.519 101.759C232.989 100.657 232.725 99.3956 232.725 97.9737C232.725 96.5334 232.995 95.2623 233.537 94.1605C234.079 93.0526 234.842 92.1877 235.827 91.5661C236.812 90.9444 237.972 90.6335 239.308 90.6335C240.385 90.6335 241.345 90.8336 242.188 91.2337C243.032 91.6276 243.712 92.1816 244.229 92.8956C244.752 93.6096 245.063 94.4437 245.161 95.3977H242.475C242.327 94.733 241.988 94.1605 241.459 93.6804C240.936 93.2003 240.234 92.9602 239.354 92.9602C238.584 92.9602 237.91 93.1634 237.332 93.5696C236.759 93.9697 236.313 94.5421 235.993 95.2869C235.673 96.0256 235.513 96.8996 235.513 97.9091C235.513 98.9432 235.67 99.8357 235.984 100.587C236.298 101.338 236.741 101.919 237.313 102.332C237.892 102.744 238.572 102.95 239.354 102.95C239.877 102.95 240.351 102.855 240.776 102.664C241.207 102.467 241.567 102.187 241.856 101.824C242.151 101.461 242.358 101.024 242.475 100.513H245.161C245.063 101.43 244.764 102.249 244.266 102.969C243.767 103.689 243.099 104.255 242.262 104.668C241.431 105.08 240.456 105.286 239.335 105.286ZM254.734 90.8182V93.0341H246.987V90.8182H254.734ZM249.065 87.4205H251.825V100.836C251.825 101.371 251.905 101.775 252.065 102.045C252.225 102.31 252.432 102.492 252.684 102.59C252.942 102.683 253.223 102.729 253.524 102.729C253.746 102.729 253.94 102.713 254.106 102.683C254.272 102.652 254.401 102.627 254.494 102.609L254.992 104.889C254.832 104.951 254.604 105.012 254.309 105.074C254.013 105.142 253.644 105.179 253.201 105.185C252.475 105.197 251.798 105.068 251.17 104.797C250.542 104.526 250.034 104.107 249.646 103.541C249.259 102.975 249.065 102.264 249.065 101.408V87.4205Z" fill="#CF8900"/>
<g clip-path="url(#clip0_637_123)">
<path d="M85.6315 57.6733C85.2237 57.2653 84.7395 56.9416 84.2065 56.7208C83.6736 56.5 83.1024 56.3864 82.5255 56.3865M82.5255 56.3865C80.1004 56.3865 78.1323 58.3549 78.1323 60.7796C78.1323 63.2059 86.9188 63.8449 86.9188 66.2712C86.9188 68.6959 84.9506 70.6644 82.5256 70.6644C81.9488 70.6645 81.3776 70.5508 80.8446 70.33C80.3117 70.1092 79.8275 69.7856 79.4197 69.3776M82.5255 56.3865V54.1899M82.5255 72.8611V70.6645" stroke="#CF8900" stroke-width="3" stroke-miterlimit="10" stroke-linecap="round" stroke-linejoin="round"/>
<path d="M82.5254 80C91.6241 80 99 72.6241 99 63.5254C99 54.4267 91.6241 47.0508 82.5254 47.0508C73.4267 47.0508 66.0508 54.4267 66.0508 63.5254C66.0508 72.6241 73.4267 80 82.5254 80Z" stroke="#CF8900" stroke-width="3" stroke-miterlimit="10" stroke-linecap="round" stroke-linejoin="round"/>
<path d="M107.787 55.8374H125.359V71.2136M90.2135 104.163H72.6406V88.7866" stroke="#CF8900" stroke-width="3" stroke-miterlimit="10" stroke-linecap="round" stroke-linejoin="round"/>
<path d="M112.18 51.4438L107.787 55.8372L112.18 60.2304M85.8203 108.556L90.2135 104.163L85.8203 99.7694M131.949 84.4143L115.475 93.9259L99 84.4143" stroke="#CF8900" stroke-width="3" stroke-miterlimit="10" stroke-linecap="round" stroke-linejoin="round"/>
<path d="M115.475 112.949L131.949 103.438V84.4145L115.475 74.9028L99 84.4145V103.438L115.475 112.949ZM115.475 112.949V93.9262" stroke="#CF8900" stroke-width="3" stroke-miterlimit="10" stroke-linecap="round" stroke-linejoin="round"/>
</g>
<defs>
<clipPath id="clip0_637_123">
<rect width="70" height="70" fill="white" transform="translate(64 45)"/>
</clipPath>
</defs>
</svg>
