<svg width="320" height="160" viewBox="0 0 320 160" fill="none" xmlns="http://www.w3.org/2000/svg">
<rect width="320" height="160" fill="#FEEDCC"/>
<path d="M144.78 74L139.536 55.0909H142.536L146.22 69.7344H146.396L150.227 55.0909H153.2L157.032 69.7436H157.207L160.882 55.0909H163.892L158.638 74H155.767L151.788 59.8366H151.64L147.661 74H144.78ZM169.032 65.5795V74H166.272V55.0909H168.996V62.1264H169.171C169.503 61.3632 170.011 60.7569 170.694 60.3075C171.378 59.8582 172.27 59.6335 173.372 59.6335C174.345 59.6335 175.194 59.8336 175.92 60.2337C176.653 60.6338 177.219 61.2308 177.619 62.0249C178.025 62.8127 178.229 63.7976 178.229 64.9794V74H175.468V65.3118C175.468 64.2715 175.2 63.4652 174.665 62.8928C174.129 62.3142 173.384 62.0249 172.43 62.0249C171.778 62.0249 171.193 62.1634 170.676 62.4403C170.165 62.7173 169.762 63.1236 169.466 63.6591C169.177 64.1884 169.032 64.8286 169.032 65.5795ZM187.886 74.2862C186.557 74.2862 185.396 73.9815 184.405 73.3722C183.414 72.7628 182.645 71.9103 182.097 70.8146C181.549 69.719 181.275 68.4387 181.275 66.9737C181.275 65.5026 181.549 64.2161 182.097 63.1143C182.645 62.0125 183.414 61.157 184.405 60.5476C185.396 59.9382 186.557 59.6335 187.886 59.6335C189.216 59.6335 190.376 59.9382 191.367 60.5476C192.358 61.157 193.127 62.0125 193.675 63.1143C194.223 64.2161 194.497 65.5026 194.497 66.9737C194.497 68.4387 194.223 69.719 193.675 70.8146C193.127 71.9103 192.358 72.7628 191.367 73.3722C190.376 73.9815 189.216 74.2862 187.886 74.2862ZM187.895 71.9688C188.757 71.9688 189.471 71.741 190.037 71.2855C190.604 70.83 191.022 70.2237 191.293 69.4666C191.57 68.7095 191.709 67.8755 191.709 66.9645C191.709 66.0597 191.57 65.2287 191.293 64.4716C191.022 63.7083 190.604 63.0959 190.037 62.6342C189.471 62.1726 188.757 61.9418 187.895 61.9418C187.028 61.9418 186.307 62.1726 185.735 62.6342C185.169 63.0959 184.747 63.7083 184.47 64.4716C184.199 65.2287 184.064 66.0597 184.064 66.9645C184.064 67.8755 184.199 68.7095 184.47 69.4666C184.747 70.2237 185.169 70.83 185.735 71.2855C186.307 71.741 187.028 71.9688 187.895 71.9688ZM200.339 55.0909V74H197.578V55.0909H200.339ZM210.165 74.2862C208.768 74.2862 207.565 73.9877 206.555 73.3906C205.552 72.7874 204.776 71.9411 204.229 70.8516C203.687 69.7559 203.416 68.4725 203.416 67.0014C203.416 65.5488 203.687 64.2685 204.229 63.1605C204.776 62.0526 205.54 61.1877 206.518 60.5661C207.503 59.9444 208.654 59.6335 209.971 59.6335C210.772 59.6335 211.547 59.7659 212.298 60.0305C213.049 60.2952 213.723 60.7107 214.32 61.277C214.917 61.8433 215.388 62.5788 215.733 63.4837C216.077 64.3823 216.25 65.4749 216.25 66.7614V67.7401H204.976V65.6719H213.545C213.545 64.9455 213.397 64.3023 213.101 63.7422C212.806 63.1759 212.39 62.7296 211.855 62.4034C211.326 62.0772 210.704 61.9141 209.99 61.9141C209.214 61.9141 208.537 62.1049 207.959 62.4865C207.386 62.862 206.943 63.3544 206.629 63.9638C206.321 64.567 206.167 65.2225 206.167 65.9304V67.5462C206.167 68.4941 206.334 69.3004 206.666 69.9652C207.005 70.63 207.475 71.1378 208.079 71.4886C208.682 71.8333 209.387 72.0057 210.193 72.0057C210.716 72.0057 211.193 71.9318 211.624 71.7841C212.055 71.6302 212.427 71.4025 212.741 71.1009C213.055 70.7992 213.295 70.4268 213.461 69.9837L216.074 70.4545C215.865 71.224 215.49 71.898 214.948 72.4766C214.412 73.049 213.738 73.4953 212.926 73.8153C212.12 74.1293 211.199 74.2862 210.165 74.2862ZM229.94 63.2805L227.438 63.7237C227.333 63.4036 227.167 63.099 226.939 62.8097C226.718 62.5204 226.416 62.2834 226.034 62.0987C225.653 61.9141 225.176 61.8217 224.603 61.8217C223.822 61.8217 223.169 61.9972 222.646 62.348C222.123 62.6927 221.861 63.139 221.861 63.6868C221.861 64.1607 222.037 64.5424 222.387 64.8317C222.738 65.121 223.305 65.358 224.086 65.5426L226.339 66.0597C227.644 66.3613 228.617 66.826 229.257 67.4538C229.897 68.0817 230.217 68.8973 230.217 69.9006C230.217 70.75 229.971 71.5071 229.478 72.1719C228.992 72.8305 228.312 73.3475 227.438 73.723C226.57 74.0985 225.564 74.2862 224.419 74.2862C222.831 74.2862 221.535 73.9477 220.532 73.2706C219.528 72.5874 218.913 71.6179 218.685 70.3622L221.353 69.956C221.52 70.6515 221.861 71.1778 222.378 71.5348C222.895 71.8857 223.569 72.0611 224.4 72.0611C225.305 72.0611 226.028 71.8733 226.57 71.4979C227.112 71.1162 227.382 70.6515 227.382 70.1037C227.382 69.6605 227.216 69.2881 226.884 68.9865C226.558 68.6849 226.056 68.4571 225.379 68.3033L222.978 67.777C221.655 67.4754 220.676 66.9953 220.042 66.3366C219.414 65.678 219.1 64.844 219.1 63.8345C219.1 62.9974 219.334 62.2649 219.802 61.6371C220.27 61.0092 220.916 60.5199 221.741 60.169C222.566 59.812 223.511 59.6335 224.576 59.6335C226.108 59.6335 227.315 59.9659 228.195 60.6307C229.075 61.2893 229.657 62.1726 229.94 63.2805ZM237.379 74.3139C236.481 74.3139 235.668 74.1477 234.942 73.8153C234.216 73.4768 233.64 72.9875 233.215 72.3473C232.797 71.7071 232.588 70.9223 232.588 69.9929C232.588 69.1927 232.741 68.5341 233.049 68.017C233.357 67.5 233.772 67.0907 234.296 66.7891C234.819 66.4875 235.404 66.2597 236.05 66.1058C236.696 65.9519 237.355 65.835 238.026 65.755C238.875 65.6565 239.565 65.5765 240.094 65.5149C240.623 65.4472 241.008 65.3395 241.248 65.1918C241.488 65.044 241.608 64.804 241.608 64.4716V64.407C241.608 63.6006 241.38 62.9759 240.925 62.5327C240.476 62.0895 239.805 61.8679 238.912 61.8679C237.983 61.8679 237.25 62.0741 236.715 62.4865C236.185 62.8928 235.819 63.3452 235.616 63.8438L233.021 63.2528C233.329 62.3911 233.779 61.6955 234.369 61.1662C234.967 60.6307 235.653 60.2429 236.428 60.0028C237.204 59.7566 238.02 59.6335 238.875 59.6335C239.441 59.6335 240.042 59.7012 240.676 59.8366C241.316 59.9659 241.913 60.206 242.467 60.5568C243.027 60.9077 243.485 61.4093 243.843 62.0618C244.2 62.7081 244.378 63.5483 244.378 64.5824V74H241.682V72.0611H241.571C241.393 72.4181 241.125 72.7689 240.768 73.1136C240.411 73.4583 239.952 73.7446 239.392 73.9723C238.832 74.2 238.161 74.3139 237.379 74.3139ZM237.98 72.098C238.743 72.098 239.395 71.9472 239.937 71.6456C240.485 71.344 240.9 70.95 241.183 70.4638C241.473 69.9714 241.617 69.4451 241.617 68.8849V67.0568C241.519 67.1553 241.328 67.2476 241.045 67.3338C240.768 67.4138 240.451 67.4846 240.094 67.5462C239.737 67.6016 239.389 67.6539 239.051 67.7031C238.712 67.7462 238.429 67.7831 238.201 67.8139C237.666 67.8816 237.176 67.9955 236.733 68.1555C236.296 68.3156 235.945 68.5464 235.681 68.848C235.422 69.1435 235.293 69.5374 235.293 70.0298C235.293 70.7131 235.545 71.2301 236.05 71.581C236.555 71.9257 237.198 72.098 237.98 72.098ZM250.816 55.0909V74H248.055V55.0909H250.816ZM260.642 74.2862C259.245 74.2862 258.041 73.9877 257.032 73.3906C256.028 72.7874 255.253 71.9411 254.705 70.8516C254.163 69.7559 253.893 68.4725 253.893 67.0014C253.893 65.5488 254.163 64.2685 254.705 63.1605C255.253 62.0526 256.016 61.1877 256.995 60.5661C257.98 59.9444 259.131 59.6335 260.448 59.6335C261.248 59.6335 262.024 59.7659 262.775 60.0305C263.526 60.2952 264.2 60.7107 264.797 61.277C265.394 61.8433 265.865 62.5788 266.209 63.4837C266.554 64.3823 266.726 65.4749 266.726 66.7614V67.7401H255.453V65.6719H264.021C264.021 64.9455 263.873 64.3023 263.578 63.7422C263.282 63.1759 262.867 62.7296 262.331 62.4034C261.802 62.0772 261.18 61.9141 260.466 61.9141C259.691 61.9141 259.014 62.1049 258.435 62.4865C257.863 62.862 257.42 63.3544 257.106 63.9638C256.798 64.567 256.644 65.2225 256.644 65.9304V67.5462C256.644 68.4941 256.81 69.3004 257.143 69.9652C257.481 70.63 257.952 71.1378 258.555 71.4886C259.158 71.8333 259.863 72.0057 260.67 72.0057C261.193 72.0057 261.67 71.9318 262.101 71.7841C262.532 71.6302 262.904 71.4025 263.218 71.1009C263.532 70.7992 263.772 70.4268 263.938 69.9837L266.551 70.4545C266.342 71.224 265.966 71.898 265.425 72.4766C264.889 73.049 264.215 73.4953 263.403 73.8153C262.596 74.1293 261.676 74.2862 260.642 74.2862ZM141.077 105V86.0909H147.817C149.289 86.0909 150.507 86.3587 151.474 86.8942C152.44 87.4297 153.163 88.1622 153.643 89.0916C154.124 90.0149 154.364 91.0552 154.364 92.2124C154.364 93.3757 154.121 94.4221 153.634 95.3516C153.154 96.2749 152.428 97.0073 151.455 97.549C150.489 98.0845 149.273 98.3523 147.808 98.3523H143.173V95.9332H147.55C148.479 95.9332 149.233 95.7732 149.812 95.4531C150.39 95.1269 150.815 94.6837 151.086 94.1236C151.357 93.5634 151.492 92.9264 151.492 92.2124C151.492 91.4983 151.357 90.8643 151.086 90.3104C150.815 89.7564 150.387 89.3224 149.803 89.0085C149.224 88.6946 148.461 88.5376 147.513 88.5376H143.93V105H141.077ZM157.487 105V90.8182H160.155V93.071H160.303C160.561 92.3078 161.017 91.7076 161.669 91.2706C162.328 90.8274 163.073 90.6058 163.904 90.6058C164.076 90.6058 164.279 90.612 164.513 90.6243C164.753 90.6366 164.941 90.652 165.076 90.6705V93.3111C164.965 93.2803 164.768 93.2464 164.485 93.2095C164.202 93.1664 163.919 93.1449 163.636 93.1449C162.983 93.1449 162.402 93.2834 161.891 93.5604C161.386 93.8312 160.986 94.2098 160.691 94.696C160.395 95.1761 160.247 95.724 160.247 96.3395V105H157.487ZM167.465 105V90.8182H170.226V105H167.465ZM168.859 88.63C168.379 88.63 167.967 88.4699 167.622 88.1499C167.284 87.8236 167.114 87.4358 167.114 86.9865C167.114 86.531 167.284 86.1432 167.622 85.8232C167.967 85.4969 168.379 85.3338 168.859 85.3338C169.339 85.3338 169.749 85.4969 170.087 85.8232C170.432 86.1432 170.604 86.531 170.604 86.9865C170.604 87.4358 170.432 87.8236 170.087 88.1499C169.749 88.4699 169.339 88.63 168.859 88.63ZM179.914 105.286C178.541 105.286 177.359 104.975 176.368 104.354C175.383 103.726 174.626 102.861 174.097 101.759C173.567 100.657 173.303 99.3956 173.303 97.9737C173.303 96.5334 173.574 95.2623 174.115 94.1605C174.657 93.0526 175.42 92.1877 176.405 91.5661C177.39 90.9444 178.55 90.6335 179.886 90.6335C180.963 90.6335 181.923 90.8336 182.767 91.2337C183.61 91.6276 184.29 92.1816 184.807 92.8956C185.33 93.6096 185.641 94.4437 185.74 95.3977H183.053C182.905 94.733 182.566 94.1605 182.037 93.6804C181.514 93.2003 180.812 92.9602 179.932 92.9602C179.163 92.9602 178.489 93.1634 177.91 93.5696C177.338 93.9697 176.891 94.5421 176.571 95.2869C176.251 96.0256 176.091 96.8996 176.091 97.9091C176.091 98.9432 176.248 99.8357 176.562 100.587C176.876 101.338 177.319 101.919 177.892 102.332C178.47 102.744 179.15 102.95 179.932 102.95C180.455 102.95 180.929 102.855 181.354 102.664C181.785 102.467 182.145 102.187 182.434 101.824C182.73 101.461 182.936 101.024 183.053 100.513H185.74C185.641 101.43 185.343 102.249 184.844 102.969C184.345 103.689 183.677 104.255 182.84 104.668C182.009 105.08 181.034 105.286 179.914 105.286ZM194.804 105.286C193.407 105.286 192.203 104.988 191.194 104.391C190.191 103.787 189.415 102.941 188.867 101.852C188.326 100.756 188.055 99.4725 188.055 98.0014C188.055 96.5488 188.326 95.2685 188.867 94.1605C189.415 93.0526 190.178 92.1877 191.157 91.5661C192.142 90.9444 193.293 90.6335 194.61 90.6335C195.41 90.6335 196.186 90.7659 196.937 91.0305C197.688 91.2952 198.362 91.7107 198.959 92.277C199.556 92.8433 200.027 93.5788 200.371 94.4837C200.716 95.3823 200.888 96.4749 200.888 97.7614V98.7401H189.615V96.6719H198.183C198.183 95.9455 198.036 95.3023 197.74 94.7422C197.445 94.1759 197.029 93.7296 196.494 93.4034C195.964 93.0772 195.343 92.9141 194.629 92.9141C193.853 92.9141 193.176 93.1049 192.597 93.4865C192.025 93.862 191.582 94.3544 191.268 94.9638C190.96 95.567 190.806 96.2225 190.806 96.9304V98.5462C190.806 99.4941 190.972 100.3 191.305 100.965C191.643 101.63 192.114 102.138 192.717 102.489C193.321 102.833 194.025 103.006 194.832 103.006C195.355 103.006 195.832 102.932 196.263 102.784C196.694 102.63 197.066 102.402 197.38 102.101C197.694 101.799 197.934 101.427 198.1 100.984L200.713 101.455C200.504 102.224 200.128 102.898 199.587 103.477C199.051 104.049 198.377 104.495 197.565 104.815C196.758 105.129 195.838 105.286 194.804 105.286ZM214.579 94.2805L212.077 94.7237C211.972 94.4036 211.806 94.099 211.578 93.8097C211.356 93.5204 211.055 93.2834 210.673 93.0987C210.291 92.9141 209.814 92.8217 209.242 92.8217C208.46 92.8217 207.808 92.9972 207.285 93.348C206.761 93.6927 206.5 94.139 206.5 94.6868C206.5 95.1607 206.675 95.5424 207.026 95.8317C207.377 96.121 207.943 96.358 208.725 96.5426L210.978 97.0597C212.283 97.3613 213.255 97.826 213.895 98.4538C214.536 99.0817 214.856 99.8973 214.856 100.901C214.856 101.75 214.609 102.507 214.117 103.172C213.631 103.83 212.951 104.348 212.077 104.723C211.209 105.098 210.202 105.286 209.057 105.286C207.469 105.286 206.174 104.948 205.17 104.271C204.167 103.587 203.551 102.618 203.324 101.362L205.992 100.956C206.158 101.652 206.5 102.178 207.017 102.535C207.534 102.886 208.208 103.061 209.039 103.061C209.944 103.061 210.667 102.873 211.209 102.498C211.75 102.116 212.021 101.652 212.021 101.104C212.021 100.661 211.855 100.288 211.523 99.9865C211.196 99.6849 210.695 99.4571 210.018 99.3033L207.617 98.777C206.294 98.4754 205.315 97.9953 204.681 97.3366C204.053 96.678 203.739 95.844 203.739 94.8345C203.739 93.9974 203.973 93.2649 204.441 92.6371C204.909 92.0092 205.555 91.5199 206.38 91.169C207.205 90.812 208.149 90.6335 209.214 90.6335C210.747 90.6335 211.953 90.9659 212.834 91.6307C213.714 92.2893 214.296 93.1726 214.579 94.2805Z" fill="#CF8900"/>
<path d="M80 88.0615V96.5381" stroke="#CF8900" stroke-width="3" stroke-miterlimit="10" stroke-linecap="round" stroke-linejoin="round"/>
<path d="M55.3906 96.5381H104.609" stroke="#CF8900" stroke-width="3" stroke-miterlimit="10" stroke-linecap="round" stroke-linejoin="round"/>
<path d="M104.609 96.5381V104.741" stroke="#CF8900" stroke-width="3" stroke-miterlimit="10" stroke-linecap="round" stroke-linejoin="round"/>
<path d="M55.3906 96.5381V104.741" stroke="#CF8900" stroke-width="3" stroke-miterlimit="10" stroke-linecap="round" stroke-linejoin="round"/>
<path d="M71.7969 96.5381V104.741" stroke="#CF8900" stroke-width="3" stroke-miterlimit="10" stroke-linecap="round" stroke-linejoin="round"/>
<path d="M75.8984 112.944H67.6953V104.741H75.8984V112.944Z" stroke="#CF8900" stroke-width="3" stroke-miterlimit="10" stroke-linecap="round" stroke-linejoin="round"/>
<path d="M88.2031 96.5381V104.741" stroke="#CF8900" stroke-width="3" stroke-miterlimit="10" stroke-linecap="round" stroke-linejoin="round"/>
<path d="M92.3046 112.944H84.1015V104.741H92.3046V112.944ZM108.711 112.944H100.508V104.741H108.711V112.944ZM59.4922 112.944H51.2891V104.741H59.4922V112.944Z" stroke="#CF8900" stroke-width="3" stroke-miterlimit="10" stroke-linecap="round" stroke-linejoin="round"/>
<path d="M79.9999 88.0615C68.6926 88.0615 59.4922 78.8611 59.4922 67.5538C59.4922 56.2465 68.6926 47.046 79.9999 47.046C91.3072 47.046 100.508 56.2465 100.508 67.5538C100.508 78.8611 91.3072 88.0615 79.9999 88.0615Z" stroke="#CF8900" stroke-width="3" stroke-miterlimit="10" stroke-linecap="round" stroke-linejoin="round"/>
<path d="M77.0998 74.556C77.842 75.2982 78.8674 75.7573 80 75.7573C82.2653 75.7573 84.1015 73.9209 84.1015 71.6558C84.1015 69.3905 82.2653 67.5542 80 67.5542C77.7348 67.5542 75.8984 65.7178 75.8984 63.4527C75.8984 61.1874 77.7348 59.3511 80 59.3511C81.1327 59.3511 82.1581 59.8102 82.9002 60.5525" stroke="#CF8900" stroke-width="3" stroke-miterlimit="10" stroke-linecap="round" stroke-linejoin="round"/>
<path d="M80 55.249V59.3506" stroke="#CF8900" stroke-width="3" stroke-miterlimit="10" stroke-linecap="round" stroke-linejoin="round"/>
<path d="M80 79.8584V75.7568" stroke="#CF8900" stroke-width="3" stroke-miterlimit="10" stroke-linecap="round" stroke-linejoin="round"/>
</svg>
