<svg width="26" height="26" viewBox="0 0 26 26" fill="none" xmlns="http://www.w3.org/2000/svg">
<g clip-path="url(#clip0_683_11720)">
<path d="M4.12174 19.6551C4.69918 19.6551 5.1673 19.187 5.1673 18.6095C5.1673 18.0321 4.69918 17.564 4.12174 17.564C3.54429 17.564 3.07617 18.0321 3.07617 18.6095C3.07617 19.187 3.54429 19.6551 4.12174 19.6551Z" fill="#0F172A"/>
<path d="M21.8786 0.029541C20.2119 0.029541 18.7742 1.02457 18.1255 2.45125C16.7179 1.91171 14.8274 1.42404 13.3073 1.42404C10.1422 1.42404 7.16653 2.65661 4.92849 4.8946C3.03193 6.79116 1.8578 9.21745 1.54352 11.8398C1.54151 11.8553 1.53941 11.8707 1.53838 11.8864C1.48489 12.3468 1.45801 12.8099 1.45788 13.2734C1.45788 13.8476 1.53956 14.6664 1.63481 15.3261C0.6424 16.0794 0 17.271 0 18.6102C0.0001456 19.3089 0.177917 19.9962 0.516613 20.6074C0.524324 20.6238 0.532703 20.6401 0.54175 20.6561L3.31198 25.5818C3.37828 25.6997 3.47474 25.7978 3.59147 25.8661C3.7082 25.9344 3.84099 25.9704 3.97623 25.9704C4.23931 25.9704 4.48431 25.8345 4.62351 25.6104L6.33949 22.8476C8.38451 24.3012 10.8789 25.1229 13.3072 25.1229C16.4723 25.1229 19.448 23.8903 21.686 21.6523C23.924 19.4142 25.1566 16.4386 25.1566 13.2735C25.1566 11.5642 24.6211 9.65228 24.1048 8.37514L25.3267 6.40784C25.371 6.33685 25.3888 6.30863 25.3982 6.29378C25.4123 6.27141 25.4123 6.27147 25.431 6.24031L25.442 6.22201C25.4503 6.20819 25.4581 6.1941 25.4656 6.17986C25.8158 5.56102 25.9999 4.86209 26 4.15104C26.0001 1.8784 24.1512 0.029541 21.8786 0.029541ZM13.3072 2.94818C13.6614 2.94818 14.0484 2.98154 14.4499 3.03978C14.3594 4.74126 13.2694 6.25224 11.499 7.07101C11.3056 7.16045 11.1 7.24147 10.8823 7.32721C10.2351 7.58222 9.50158 7.87127 8.94579 8.47388C8.63654 8.8093 8.43093 9.19272 8.24952 9.53106C8.11325 9.78516 7.98458 10.0251 7.8316 10.2119C7.5294 10.5811 7.03427 10.8507 6.43747 10.9711C5.71637 11.1166 5.12455 11.1311 4.62798 11.0154C4.05909 10.8828 3.61948 10.8507 3.26371 10.8751C4.34798 6.33459 8.43931 2.94818 13.3072 2.94818ZM4.00872 23.7115L1.89821 19.9588C1.8892 19.9397 1.87942 19.9209 1.86891 19.9026C1.64303 19.5093 1.52414 19.0637 1.52409 18.6102C1.52409 17.178 2.68927 16.0128 4.12144 16.0128C5.55362 16.0128 6.7188 17.178 6.7188 18.6102C6.71879 19.0654 6.59905 19.5125 6.37162 19.9068C6.36884 19.9116 6.36612 19.9164 6.36344 19.9213C6.35851 19.9294 6.35738 19.9312 6.35183 19.9402C6.34196 19.9559 6.32314 19.9857 6.27575 20.0617L4.00872 23.7115ZM13.3072 23.5987C12.2932 23.5987 11.2652 23.4332 10.2723 23.1212C11.0356 22.3239 11.6401 21.2801 11.8302 20.3432C12.0685 19.1695 12.009 17.9951 11.9515 16.8595L11.9395 16.6208C11.9029 15.8785 11.8877 15.217 12.0733 14.6388C12.248 14.0947 12.6244 13.6803 13.0325 13.5829C13.4985 13.4718 14.0622 13.7153 14.6591 13.9731C14.8151 14.0405 14.9764 14.1102 15.1392 14.1749C17.1348 14.9671 19.2832 14.8774 21.1402 14.7311C21.2338 14.7237 21.3277 14.7161 21.4215 14.7086C22.1567 14.649 22.8616 14.5921 23.5433 14.6304C22.8769 19.6848 18.5408 23.5987 13.3072 23.5987ZM23.6304 13.1092C22.8403 13.0649 22.0599 13.1276 21.2985 13.1893C21.2057 13.1968 21.113 13.2043 21.0204 13.2116C19.3341 13.3444 17.3935 13.4299 15.7016 12.7582C15.56 12.702 15.416 12.6397 15.2636 12.5738C14.5015 12.2446 13.6379 11.8715 12.6787 12.1003C11.7493 12.3221 10.9612 13.1163 10.6221 14.1729C10.3586 14.9941 10.3748 15.8348 10.4172 16.6958L10.4293 16.9364C10.4844 18.0256 10.5366 19.0545 10.3365 20.04C10.1701 20.86 9.45958 21.9058 8.70409 22.491C8.15903 22.2216 7.63756 21.9069 7.14515 21.5503L7.56949 20.867C7.6137 20.7962 7.63154 20.7679 7.64089 20.753C7.65503 20.7306 7.65508 20.7306 7.67354 20.6999L7.68469 20.6813C7.69307 20.6674 7.70099 20.6533 7.70844 20.639C8.05864 20.0202 8.24274 19.3212 8.24284 18.6101C8.24284 16.3376 6.39393 14.4887 4.12139 14.4887C3.76177 14.4887 3.41289 14.5352 3.0801 14.6221C3.02335 14.1383 2.98191 13.631 2.98191 13.2733C2.98191 13.0037 2.9924 12.7364 3.01281 12.472C3.24228 12.3854 3.56458 12.3325 4.28224 12.4998C4.99568 12.6659 5.79923 12.6545 6.7388 12.4651C7.6796 12.2753 8.48644 11.818 9.01092 11.1773C9.25771 10.8758 9.43568 10.544 9.59272 10.2512C9.74467 9.96774 9.88824 9.70003 10.0663 9.50701C10.3852 9.16116 10.8981 8.95909 11.4411 8.74514C11.6693 8.65519 11.9053 8.56215 12.1388 8.4542C13.3452 7.89625 14.3419 7.05122 15.021 6.01033C15.5515 5.19712 15.867 4.2925 15.9548 3.35191C16.5972 3.52123 17.2222 3.7288 17.7623 3.94532C17.7589 4.01379 17.7571 4.08233 17.7571 4.15088C17.7572 4.84963 17.935 5.53687 18.2737 6.14804C18.2814 6.16449 18.2898 6.18074 18.2988 6.19672L21.069 11.1224C21.1353 11.2403 21.2318 11.3384 21.3485 11.4067C21.4653 11.475 21.5981 11.511 21.7333 11.511C21.9964 11.511 22.2414 11.3751 22.3806 11.151L23.0756 10.0321C23.3767 11.0107 23.6068 12.1245 23.6304 13.1092ZM24.1288 5.44745C24.126 5.45234 24.1232 5.45722 24.1205 5.46221C24.1168 5.46844 24.1129 5.47462 24.109 5.48076C24.0992 5.49639 24.0804 5.52631 24.0329 5.60244L22.609 7.89487C22.6046 7.90155 22.6005 7.90828 22.5964 7.91507L21.7659 9.25225L19.6553 5.49953C19.6463 5.48038 19.6366 5.46162 19.626 5.44329C19.4002 5.05004 19.2813 4.60448 19.2812 4.15099C19.2812 2.71881 20.4464 1.55363 21.8786 1.55363C23.3108 1.55363 24.476 2.71881 24.476 4.15099C24.4759 4.60611 24.3562 5.05322 24.1288 5.44745Z" fill="#0F172A"/>
<path d="M21.8795 5.19586C22.457 5.19586 22.9251 4.72775 22.9251 4.1503C22.9251 3.57285 22.457 3.10474 21.8795 3.10474C21.3021 3.10474 20.834 3.57285 20.834 4.1503C20.834 4.72775 21.3021 5.19586 21.8795 5.19586Z" fill="#0F172A"/>
</g>
<defs>
<clipPath id="clip0_683_11720">
<rect width="26" height="26" fill="white"/>
</clipPath>
</defs>
</svg>
