<svg width="26" height="26" viewBox="0 0 26 26" fill="none" xmlns="http://www.w3.org/2000/svg">
<g clip-path="url(#clip0_683_11690)">
<path fill-rule="evenodd" clip-rule="evenodd" d="M10.1639 25.2383C10.1639 25.6525 10.4997 25.9883 10.9139 25.9883H15.0861C15.5003 25.9883 15.8361 25.6525 15.8361 25.2383V23.5291C16.7579 23.2813 17.6311 22.9157 18.4389 22.4498L19.6483 23.6592C19.7889 23.7999 19.9797 23.8789 20.1786 23.8789C20.3775 23.8789 20.5683 23.7999 20.709 23.6592L23.6591 20.7091C23.952 20.4162 23.952 19.9413 23.6591 19.6484L22.4497 18.439C22.9156 17.6312 23.2812 16.7579 23.529 15.8361H25.2382C25.6524 15.8361 25.9882 15.5003 25.9882 15.0861V10.914C25.9882 10.4998 25.6524 10.164 25.2382 10.164H23.529C23.2812 9.24218 22.9156 8.36888 22.4497 7.56111L23.6591 6.35169C23.952 6.0588 23.952 5.58393 23.6591 5.29104L20.709 2.34091C20.5683 2.20026 20.3775 2.12124 20.1786 2.12124C19.9797 2.12124 19.7889 2.20026 19.6483 2.34092L18.4389 3.55033C17.6312 3.08441 16.7579 2.71885 15.8361 2.47107V0.761795C15.8361 0.34758 15.5003 0.011795 15.0861 0.011795H10.9139C10.4997 0.011795 10.1639 0.34758 10.1639 0.761795V2.47107C9.24207 2.71885 8.36877 3.08441 7.561 3.55033L6.35163 2.34092C6.21098 2.20026 6.02021 2.12124 5.8213 2.12124C5.62239 2.12124 5.43162 2.20026 5.29096 2.34091L2.34084 5.29104C2.04795 5.58393 2.04794 6.0588 2.34083 6.35169L3.55021 7.56111C3.08429 8.36888 2.71873 9.24218 2.47097 10.164H0.761719C0.347505 10.164 0.0117188 10.4998 0.0117188 10.914V15.0861C0.0117188 15.5003 0.347505 15.8361 0.761719 15.8361H2.47097C2.71873 16.7579 3.08429 17.6312 3.55021 18.439L2.34083 19.6484C2.04794 19.9413 2.04795 20.4162 2.34084 20.7091L5.29096 23.6592C5.43162 23.7999 5.62239 23.8789 5.8213 23.8789C6.02021 23.8789 6.21098 23.7999 6.35163 23.6592L7.561 22.4498C8.36877 22.9157 9.24207 23.2813 10.1639 23.5291V25.2383ZM11.6639 24.4883V22.9373C11.6639 22.5822 11.4148 22.2757 11.0672 22.2031C9.90511 21.9604 8.82174 21.5027 7.85982 20.8733C7.56268 20.6789 7.16992 20.7195 6.91884 20.9706L5.82128 22.0682L3.93182 20.1787L5.02939 19.0811C5.28047 18.8301 5.32106 18.4373 5.12665 18.1402C4.49727 17.1783 4.03963 16.0949 3.79692 14.9328C3.72432 14.5852 3.41788 14.3361 3.06276 14.3361H1.51172V11.664H3.06276C3.41788 11.664 3.72432 11.415 3.79692 11.0673C4.03963 9.90523 4.49727 8.82187 5.12665 7.85994C5.32106 7.56281 5.28047 7.17007 5.02939 6.91899L3.93182 5.82138L5.82128 3.93191L6.91884 5.0295C7.16992 5.28059 7.56268 5.3212 7.85982 5.12678C8.82174 4.49739 9.90511 4.03975 11.0672 3.79699C11.4148 3.72438 11.6639 3.41794 11.6639 3.06284V1.5118H14.3361V3.06284C14.3361 3.41794 14.5851 3.72438 14.9327 3.79699C16.0948 4.03975 17.1782 4.49739 18.1401 5.12678C18.4372 5.3212 18.83 5.28059 19.0811 5.0295L20.1786 3.93191L22.0681 5.82138L20.9705 6.91899C20.7195 7.17007 20.6789 7.56281 20.8733 7.85994C21.5027 8.82187 21.9603 9.90523 22.203 11.0673C22.2756 11.415 22.582 11.664 22.9372 11.664H24.4882V14.3361H22.9372C22.582 14.3361 22.2756 14.5852 22.203 14.9328C21.9603 16.0949 21.5027 17.1783 20.8733 18.1402C20.6789 18.4373 20.7195 18.8301 20.9705 19.0811L22.0681 20.1787L20.1786 22.0682L19.0811 20.9706C18.83 20.7195 18.4372 20.6789 18.1401 20.8733C17.1782 21.5027 16.0948 21.9604 14.9327 22.2031C14.5851 22.2757 14.3361 22.5822 14.3361 22.9373V24.4883H11.6639Z" fill="#0F172A"/>
<path fill-rule="evenodd" clip-rule="evenodd" d="M8.25 10C8.25 9.58579 8.58579 9.25 9 9.25H16C16.4142 9.25 16.75 9.58579 16.75 10C16.75 10.4142 16.4142 10.75 16 10.75H9C8.58579 10.75 8.25 10.4142 8.25 10Z" fill="#0F172A"/>
<path fill-rule="evenodd" clip-rule="evenodd" d="M14.4697 12.5303C14.7626 12.8232 15.2374 12.8232 15.5303 12.5303L17.5303 10.5303C17.8232 10.2374 17.8232 9.76256 17.5303 9.46967L15.5303 7.46967C15.2374 7.17678 14.7626 7.17678 14.4697 7.46967C14.1768 7.76256 14.1768 8.23744 14.4697 8.53033L15.9393 10L14.4697 11.4697C14.1768 11.7626 14.1768 12.2374 14.4697 12.5303Z" fill="#0F172A"/>
<path fill-rule="evenodd" clip-rule="evenodd" d="M9.25 16C9.25 15.5858 9.58579 15.25 10 15.25L17 15.25C17.4142 15.25 17.75 15.5858 17.75 16C17.75 16.4142 17.4142 16.75 17 16.75L10 16.75C9.58579 16.75 9.25 16.4142 9.25 16Z" fill="#0F172A"/>
<path fill-rule="evenodd" clip-rule="evenodd" d="M11.5303 18.5303C11.8232 18.2374 11.8232 17.7626 11.5303 17.4697L10.0607 16L11.5303 14.5303C11.8232 14.2374 11.8232 13.7626 11.5303 13.4697C11.2374 13.1768 10.7626 13.1768 10.4697 13.4697L8.46967 15.4697C8.17678 15.7626 8.17678 16.2374 8.46967 16.5303L10.4697 18.5303C10.7626 18.8232 11.2374 18.8232 11.5303 18.5303Z" fill="#0F172A"/>
</g>
<defs>
<clipPath id="clip0_683_11690">
<rect width="26" height="26" fill="white"/>
</clipPath>
</defs>
</svg>
