<svg width="26" height="26" viewBox="0 0 26 26" fill="none" xmlns="http://www.w3.org/2000/svg">
<g clip-path="url(#clip0_683_11750)">
<path fill-rule="evenodd" clip-rule="evenodd" d="M19.5 16.25C19.9142 16.25 20.25 16.5858 20.25 17V22C20.25 22.4142 19.9142 22.75 19.5 22.75C19.0858 22.75 18.75 22.4142 18.75 22V17C18.75 16.5858 19.0858 16.25 19.5 16.25Z" fill="#0F172A"/>
<path fill-rule="evenodd" clip-rule="evenodd" d="M16.25 19.5C16.25 19.0858 16.5858 18.75 17 18.75L22 18.75C22.4142 18.75 22.75 19.0858 22.75 19.5C22.75 19.9142 22.4142 20.25 22 20.25L17 20.25C16.5858 20.25 16.25 19.9142 16.25 19.5Z" fill="#0F172A"/>
<path fill-rule="evenodd" clip-rule="evenodd" d="M19.5 14.5117C16.745 14.5117 14.5117 16.745 14.5117 19.5C14.5117 22.255 16.745 24.4883 19.5 24.4883C22.255 24.4883 24.4883 22.255 24.4883 19.5C24.4883 16.745 22.255 14.5117 19.5 14.5117ZM13.0117 19.5C13.0117 15.9166 15.9166 13.0117 19.5 13.0117C23.0834 13.0117 25.9883 15.9166 25.9883 19.5C25.9883 23.0834 23.0834 25.9883 19.5 25.9883C15.9166 25.9883 13.0117 23.0834 13.0117 19.5Z" fill="#0F172A"/>
<path fill-rule="evenodd" clip-rule="evenodd" d="M0.0117188 0.761719C0.0117188 0.347505 0.347505 0.0117188 0.761719 0.0117188H20.2109C20.6252 0.0117188 20.9609 0.347505 20.9609 0.761719V13.7109C20.9609 14.1252 20.6252 14.4609 20.2109 14.4609C19.7967 14.4609 19.4609 14.1252 19.4609 13.7109V1.51172H1.51172V19.4609H13.7109C14.1252 19.4609 14.4609 19.7967 14.4609 20.2109C14.4609 20.6252 14.1252 20.9609 13.7109 20.9609H0.761719C0.347505 20.9609 0.0117188 20.6252 0.0117188 20.2109V0.761719Z" fill="#0F172A"/>
<path fill-rule="evenodd" clip-rule="evenodd" d="M7.45117 0.761719C7.45117 0.347505 7.78696 0.0117188 8.20117 0.0117188H12.7715C13.1857 0.0117188 13.5215 0.347505 13.5215 0.761719V7.26172C13.5215 7.55706 13.3482 7.82491 13.0787 7.9459C12.8093 8.06689 12.494 8.01849 12.2732 7.82228L10.4863 6.23393L8.69944 7.82228C8.4787 8.01849 8.16335 8.06689 7.89393 7.9459C7.62451 7.82491 7.45117 7.55706 7.45117 7.26172V0.761719ZM8.95117 1.51172V5.59159L9.98806 4.66991C10.2722 4.41732 10.7004 4.41732 10.9846 4.66991L12.0215 5.59159V1.51172H8.95117ZM3.05859 12.6953C3.05859 12.2811 3.39438 11.9453 3.80859 11.9453H9.29297C9.70718 11.9453 10.043 12.2811 10.043 12.6953V17.1641C10.043 17.5783 9.70718 17.9141 9.29297 17.9141H3.80859C3.39438 17.9141 3.05859 17.5783 3.05859 17.1641V12.6953ZM4.55859 13.4453V16.4141H8.54297V13.4453H4.55859Z" fill="#0F172A"/>
</g>
<defs>
<clipPath id="clip0_683_11750">
<rect width="26" height="26" fill="white"/>
</clipPath>
</defs>
</svg>
