<svg width="26" height="26" viewBox="0 0 26 26" fill="none" xmlns="http://www.w3.org/2000/svg">
<path d="M19.0938 6.09375C19.5142 6.09375 19.8555 5.7525 19.8555 5.33203V0.761719C19.8555 0.34125 19.5142 0 19.0938 0H14.5234C11.5832 0 9.19141 2.3918 9.19141 5.33203V9.14062H6.90625C6.48578 9.14062 6.14453 9.48188 6.14453 9.90234V14.4727C6.14453 14.8931 6.48578 15.2344 6.90625 15.2344H9.19141V25.2383C9.19141 25.6587 9.53266 26 9.95312 26H14.5234C14.9439 26 15.2852 25.6587 15.2852 25.2383V15.2344H18.332C18.7043 15.2344 19.0221 14.9652 19.0836 14.5981L19.8453 10.0278C19.8819 9.80688 19.8199 9.5809 19.6752 9.40977C19.5305 9.23914 19.3177 9.14062 19.0938 9.14062H15.2852V6.09375H19.0938ZM14.5234 10.6641H18.1944L17.6866 13.7109H14.5234C14.103 13.7109 13.7617 14.0522 13.7617 14.4727V24.4766H10.7148V14.4727C10.7148 14.0522 10.3736 13.7109 9.95312 13.7109H7.66797V10.6641H9.95312C10.3736 10.6641 10.7148 10.3228 10.7148 9.90234V5.33203C10.7148 3.23223 12.4236 1.52344 14.5234 1.52344H18.332V4.57031H14.5234C14.103 4.57031 13.7617 4.91156 13.7617 5.33203V9.90234C13.7617 10.3228 14.103 10.6641 14.5234 10.6641Z" fill="#0F172A"/>
</svg>
