<svg width="28" height="28" viewBox="0 0 28 28" fill="none" xmlns="http://www.w3.org/2000/svg">
<path fill-rule="evenodd" clip-rule="evenodd" d="M9.93164 17.994C9.93164 22.4469 13.5412 26.0564 17.994 26.0564C22.4469 26.0564 26.0564 22.4469 26.0564 17.994C26.0564 13.5412 22.4469 9.93163 17.994 9.93163C17.7308 9.93163 17.4704 9.94408 17.2123 9.96911C16.8551 10.0038 16.5725 10.2865 16.5381 10.6437C16.2381 13.7586 13.7586 16.2381 10.6437 16.5381C10.2865 16.5725 10.0038 16.8551 9.96913 17.2123C9.94409 17.4704 9.93164 17.7308 9.93164 17.994ZM17.994 24.5564C14.3696 24.5564 11.4316 21.6184 11.4316 17.994C11.4316 17.9769 11.4317 17.9599 11.4318 17.9429C14.7423 17.3519 17.3519 14.7423 17.9429 11.4318C17.9599 11.4317 17.977 11.4316 17.994 11.4316C21.6185 11.4316 24.5564 14.3696 24.5564 17.994C24.5564 21.6184 21.6185 24.5564 17.994 24.5564Z" fill="#0F172A"/>
<path fill-rule="evenodd" clip-rule="evenodd" d="M9.99945 3.75C6.37646 3.75 3.43945 6.68701 3.43945 10.31C3.43945 13.933 6.37646 16.87 9.99945 16.87C13.6224 16.87 16.5595 13.933 16.5595 10.31C16.5595 6.68701 13.6224 3.75 9.99945 3.75ZM1.93945 10.31C1.93945 5.85858 5.54804 2.25 9.99945 2.25C14.4509 2.25 18.0595 5.85858 18.0595 10.31C18.0595 14.7614 14.4509 18.37 9.99945 18.37C5.54804 18.37 1.93945 14.7614 1.93945 10.31Z" fill="#0F172A"/>
<path fill-rule="evenodd" clip-rule="evenodd" d="M7.63281 13.2563C7.63281 13.6706 7.9686 14.0063 8.38281 14.0063H10.0078C11.3195 14.0063 12.3828 12.943 12.3828 11.6313C12.3828 10.3196 11.3195 9.25634 10.0078 9.25634C9.52454 9.25634 9.13281 8.86461 9.13281 8.38133C9.13281 7.89806 9.52454 7.50633 10.0078 7.50633H11.6328C12.047 7.50633 12.3828 7.17054 12.3828 6.75633C12.3828 6.34212 12.047 6.00633 11.6328 6.00633H10.0078C8.69612 6.00633 7.63281 7.06963 7.63281 8.38133C7.63281 9.69304 8.69612 10.7563 10.0078 10.7563C10.4911 10.7563 10.8828 11.1481 10.8828 11.6313C10.8828 12.1146 10.4911 12.5063 10.0078 12.5063H8.38281C7.9686 12.5063 7.63281 12.8421 7.63281 13.2563Z" fill="#0F172A"/>
<path fill-rule="evenodd" clip-rule="evenodd" d="M10.0059 7.50635C10.4201 7.50635 10.7559 7.17056 10.7559 6.75635V5.78652C10.7559 5.37231 10.4201 5.03652 10.0059 5.03652C9.59165 5.03652 9.25586 5.37231 9.25586 5.78652V6.75635C9.25586 7.17056 9.59165 7.50635 10.0059 7.50635Z" fill="#0F172A"/>
<path fill-rule="evenodd" clip-rule="evenodd" d="M10.0059 14.9761C10.4201 14.9761 10.7559 14.6403 10.7559 14.2261V13.2562C10.7559 12.842 10.4201 12.5062 10.0059 12.5062C9.59165 12.5062 9.25586 12.842 9.25586 13.2562V14.2261C9.25586 14.6403 9.59165 14.9761 10.0059 14.9761Z" fill="#0F172A"/>
<path fill-rule="evenodd" clip-rule="evenodd" d="M17.9946 20.9043C16.3871 20.9043 15.084 19.6012 15.084 17.9937C15.084 16.3862 16.3871 15.0831 17.9946 15.0831C18.877 15.0831 19.6668 15.4755 20.202 16.0981C20.4721 16.4122 20.9456 16.448 21.2597 16.178C21.5738 15.9079 21.6095 15.4344 21.3395 15.1203C20.5321 14.1811 19.3334 13.5831 17.9946 13.5831C15.5587 13.5831 13.584 15.5578 13.584 17.9937C13.584 20.4296 15.5587 22.4043 17.9946 22.4043C19.3334 22.4043 20.5321 21.8063 21.3395 20.867C21.6095 20.5529 21.5738 20.0794 21.2597 19.8094C20.9456 19.5394 20.4721 19.5751 20.202 19.8892C19.6668 20.5118 18.877 20.9043 17.9946 20.9043Z" fill="#0F172A"/>
<path fill-rule="evenodd" clip-rule="evenodd" d="M13.584 17.9939C13.584 18.4081 13.9198 18.7439 14.334 18.7439H18.4052C18.8194 18.7439 19.1552 18.4081 19.1552 17.9939C19.1552 17.5797 18.8194 17.2439 18.4052 17.2439H14.334C13.9198 17.2439 13.584 17.5797 13.584 17.9939Z" fill="#0F172A"/>
<path fill-rule="evenodd" clip-rule="evenodd" d="M10.9821 26.5563C11.1021 26.1599 10.8779 25.7412 10.4814 25.6213C7.0441 24.5814 4.10619 21.7868 2.66669 18.4705C2.50175 18.0905 2.06003 17.9162 1.68007 18.0812C1.30011 18.2461 1.12579 18.6878 1.29073 19.0678C2.8887 22.7491 6.14873 25.8777 10.0471 27.057C10.4436 27.177 10.8622 26.9528 10.9821 26.5563Z" fill="#0F172A"/>
<path fill-rule="evenodd" clip-rule="evenodd" d="M0.761088 21.3462C1.15369 21.4782 1.57901 21.267 1.71106 20.8744L2.25756 19.2497L3.88217 19.7962C4.27477 19.9283 4.70009 19.7171 4.83215 19.3245C4.96421 18.9319 4.75301 18.5066 4.36041 18.3745L2.02494 17.5889C1.8364 17.5255 1.6304 17.5396 1.45224 17.628C1.27409 17.7165 1.13837 17.8721 1.07495 18.0606L0.289342 20.3962C0.157283 20.7888 0.36849 21.2141 0.761088 21.3462Z" fill="#0F172A"/>
<path fill-rule="evenodd" clip-rule="evenodd" d="M26.3048 9.8757C26.6842 9.70943 26.8569 9.2671 26.6907 8.88772C25.0859 5.22601 21.8365 2.11762 17.9537 0.943021C17.5572 0.823084 17.1386 1.04726 17.0187 1.44373C16.8987 1.8402 17.1229 2.25883 17.5194 2.37876C20.9428 3.41438 23.871 6.19075 25.3168 9.48983C25.4831 9.86921 25.9254 10.042 26.3048 9.8757Z" fill="#0F172A"/>
<path fill-rule="evenodd" clip-rule="evenodd" d="M26.5482 10.3722C26.7263 10.2837 26.862 10.1281 26.9254 9.93955L27.7111 7.60403C27.8431 7.21143 27.6319 6.78611 27.2393 6.65405C26.8467 6.52199 26.4214 6.7332 26.2893 7.12579L25.7428 8.75046L24.1182 8.20397C23.7256 8.0719 23.3003 8.28311 23.1683 8.67571C23.0362 9.0683 23.2474 9.49362 23.64 9.62569L25.9755 10.4113C26.164 10.4747 26.37 10.4606 26.5482 10.3722Z" fill="#0F172A"/>
</svg>
