<svg width="26" height="26" viewBox="0 0 26 26" fill="none" xmlns="http://www.w3.org/2000/svg">
<g clip-path="url(#clip0_699_10480)">
<path d="M21.125 13C21.125 17.4874 17.4872 21.125 13 21.125C8.5127 21.125 4.875 17.4874 4.875 13C4.875 8.51272 8.5127 4.87506 13 4.87506C17.4872 4.87506 21.125 8.51272 21.125 13Z" stroke="#12131C" stroke-width="1.5" stroke-miterlimit="10" stroke-linecap="round" stroke-linejoin="round"/>
<path d="M14.0156 13H11.9844C10.3016 13 8.9375 14.3642 8.9375 16.0469V16.5547H17.0625V16.0469C17.0625 14.3642 15.6983 13 14.0156 13Z" stroke="#12131C" stroke-width="1.5" stroke-miterlimit="10" stroke-linecap="round" stroke-linejoin="round"/>
<path d="M15.539 10.461C15.539 11.8632 14.4023 13 13 13C11.5977 13 10.4609 11.8632 10.4609 10.461C10.4609 9.05871 11.5977 7.92192 13 7.92192C14.4023 7.92192 15.539 9.05871 15.539 10.461Z" stroke="#12131C" stroke-width="1.5" stroke-miterlimit="10" stroke-linecap="round" stroke-linejoin="round"/>
<path d="M25.2382 4.82428H21.1757V0.761792H25.2382V4.82428ZM4.82421 4.82428H0.761719V0.761792H4.82421V4.82428ZM25.2382 25.2383H21.1757V21.1758H25.2382V25.2383ZM4.82421 25.2383H0.761719V21.1758H4.82421V25.2383Z" stroke="#12131C" stroke-width="1.5" stroke-miterlimit="10" stroke-linecap="round" stroke-linejoin="round"/>
<path d="M21.1766 4.82429L18.7461 7.25482" stroke="#12131C" stroke-width="1.5" stroke-miterlimit="10" stroke-linecap="round" stroke-linejoin="round"/>
<path d="M7.25475 18.7453L4.82422 21.1758" stroke="#12131C" stroke-width="1.5" stroke-miterlimit="10" stroke-linecap="round" stroke-linejoin="round"/>
<path d="M4.82422 4.82429L7.25475 7.25482" stroke="#12131C" stroke-width="1.5" stroke-miterlimit="10" stroke-linecap="round" stroke-linejoin="round"/>
<path d="M18.7461 18.7453L21.1766 21.1758" stroke="#12131C" stroke-width="1.5" stroke-miterlimit="10" stroke-linecap="round" stroke-linejoin="round"/>
</g>
<defs>
<clipPath id="clip0_699_10480">
<rect width="26" height="26" fill="white"/>
</clipPath>
</defs>
</svg>
