<svg width="26" height="26" viewBox="0 0 26 26" fill="none" xmlns="http://www.w3.org/2000/svg">
<g clip-path="url(#clip0_699_10465)">
<path d="M25.2382 24.4765H24.4765V7.71877H25.2382C25.3737 7.71877 25.5068 7.68263 25.6237 7.61407C25.7405 7.54552 25.837 7.44703 25.9032 7.32877C25.9693 7.21051 26.0027 7.07674 25.9998 6.94128C25.997 6.80581 25.9581 6.67356 25.8871 6.55816L22.0785 0.362862C22.0103 0.252024 21.9149 0.160496 21.8013 0.0970066C21.6877 0.0335172 21.5598 0.000183207 21.4296 0.000183207C21.2995 0.000183207 21.1716 0.0335172 21.058 0.0970066C20.9444 0.160496 20.849 0.252024 20.7808 0.362862L16.9722 6.55816C16.9013 6.67357 16.8624 6.80582 16.8595 6.94128C16.8567 7.07673 16.89 7.21049 16.9561 7.32877C17.0223 7.44703 17.1187 7.54552 17.2356 7.61407C17.3525 7.68263 17.4856 7.71877 17.6211 7.71877H18.3828V24.4765H16.8593V11.5274C16.8593 11.1066 16.5183 10.7656 16.0976 10.7656H11.5273C11.1066 10.7656 10.7656 11.1066 10.7656 11.5274V24.4765H9.24217V16.0977C9.24217 15.6769 8.90117 15.3359 8.48045 15.3359H3.91015C3.48943 15.3359 3.14843 15.6769 3.14843 16.0977V24.4765H0.761717C0.340995 24.4765 0 24.8175 0 25.2383C0 25.659 0.340995 26 0.761717 26H25.2382C25.659 26 25.9999 25.659 25.9999 25.2383C25.9999 24.8175 25.659 24.4765 25.2382 24.4765ZM12.289 12.2891H15.3359V24.4765H12.289V12.2891ZM4.67187 16.8594H7.71873V24.4765H4.67187V16.8594ZM19.9062 24.4765V6.95705C19.9062 6.53633 19.5652 6.19533 19.1445 6.19533H18.9834L21.4296 2.21612L23.8759 6.19533H23.7148C23.2941 6.19533 22.9531 6.53633 22.9531 6.95705V24.4765H19.9062ZM2.28515 6.19533C2.70511 6.19533 3.04687 6.53709 3.04687 6.95705C3.04687 7.37701 2.70511 7.71877 2.28515 7.71877C2.01398 7.71877 1.76109 7.57257 1.62479 7.3373C1.41436 6.9733 0.948389 6.84878 0.584186 7.05942C0.219984 7.27006 0.0956209 7.73603 0.306058 8.10023C0.5818 8.57671 1.01821 8.93056 1.52343 9.10992V9.94298C1.52343 10.3637 1.86443 10.7047 2.28515 10.7047C2.70587 10.7047 3.04687 10.3637 3.04687 9.94298V9.11118C3.93351 8.79665 4.5703 7.95002 4.5703 6.957C4.5703 5.69696 3.54513 4.67185 2.28515 4.67185C1.86519 4.67185 1.52343 4.33009 1.52343 3.91013C1.52343 3.49017 1.86519 3.14841 2.28515 3.14841C2.55632 3.14841 2.80921 3.29461 2.94551 3.52988C3.15595 3.89388 3.62191 4.01839 3.98612 3.80775C4.35032 3.59711 4.47468 3.13115 4.26425 2.76694C3.9885 2.29051 3.55189 1.93667 3.04687 1.75731V0.761748C3.04687 0.341026 2.70587 3.05176e-05 2.28515 3.05176e-05C1.86443 3.05176e-05 1.52343 0.341026 1.52343 0.761748V1.75614C0.636796 2.07053 0 2.91715 0 3.91018C0 5.17021 1.02517 6.19533 2.28515 6.19533Z" fill="#12131C"/>
</g>
<defs>
<clipPath id="clip0_699_10465">
<rect width="26" height="26" fill="white"/>
</clipPath>
</defs>
</svg>
