<svg width="28" height="28" viewBox="0 0 28 28" fill="none" xmlns="http://www.w3.org/2000/svg">
<path fill-rule="evenodd" clip-rule="evenodd" d="M15.4631 17.8576C15.9973 17.4663 16.3442 16.8535 16.3512 16.0723L15.6012 16.0655L16.3512 16.0723C16.3512 16.0723 16.3512 16.0723 16.3512 16.0723C16.355 15.6408 16.2523 15.2553 16.0488 14.9224C15.8492 14.596 15.5774 14.3604 15.3015 14.1842C14.8726 13.9104 14.3314 13.7259 13.9032 13.5799C13.8183 13.5509 13.7378 13.5235 13.6636 13.4972C13.2732 13.3589 12.8445 13.5632 12.7062 13.9537C12.5678 14.3441 12.7722 14.7728 13.1626 14.9111C13.2749 14.9509 13.3813 14.9876 13.4823 15.0224C13.9048 15.1681 14.2319 15.2809 14.4943 15.4485C14.6379 15.5402 14.7205 15.6255 14.769 15.7049C14.8136 15.7778 14.8528 15.883 14.8512 16.0588L14.8512 16.0588C14.8485 16.3628 14.7321 16.5337 14.5768 16.6474C14.3964 16.7795 14.1141 16.8645 13.7842 16.8539C13.4553 16.8433 13.1553 16.7396 12.9565 16.5891C12.7737 16.4509 12.6836 16.285 12.6836 16.0723C12.6836 15.6581 12.3478 15.3223 11.9336 15.3223C11.5194 15.3223 11.1836 15.6581 11.1836 16.0723C11.1836 16.8205 11.5495 17.4055 12.0514 17.7853C12.5372 18.1528 13.1505 18.3343 13.736 18.3531C14.3206 18.3719 14.9539 18.2305 15.4631 17.8576Z" fill="#0F172A"/>
<path fill-rule="evenodd" clip-rule="evenodd" d="M14.2265 14.4937C14.3644 14.1031 14.1596 13.6747 13.7691 13.5367C13.3384 13.3847 13.0434 13.2538 12.8531 13.0947C12.7069 12.9724 12.6227 12.8378 12.625 12.5778V12.5778C12.6278 12.2738 12.7442 12.1029 12.8995 11.9892C13.0798 11.8571 13.3622 11.7721 13.692 11.7827C14.021 11.7933 14.3209 11.897 14.5198 12.0475C14.7025 12.1858 14.7927 12.3516 14.7927 12.5643C14.7927 12.9785 15.1285 13.3143 15.5427 13.3143C15.9569 13.3143 16.2927 12.9785 16.2927 12.5643C16.2927 11.8162 15.9268 11.2311 15.4249 10.8513C14.9391 10.4838 14.3258 10.3023 13.7403 10.2835C13.1556 10.2647 12.5223 10.4061 12.0131 10.7791C11.479 11.1703 11.1321 11.7832 11.1251 12.5644L11.8751 12.5711L11.1251 12.5644C11.1185 13.3075 11.4274 13.8578 11.891 14.2454C12.3106 14.5962 12.8422 14.8002 13.2695 14.9511C13.6601 15.0891 14.0885 14.8843 14.2265 14.4937Z" fill="#0F172A"/>
<path fill-rule="evenodd" clip-rule="evenodd" d="M13.7871 19.6633C14.2013 19.6633 14.5371 19.3275 14.5371 18.9133V17.6538C14.5371 17.2396 14.2013 16.9038 13.7871 16.9038C13.3729 16.9038 13.0371 17.2396 13.0371 17.6538V18.9133C13.0371 19.3275 13.3729 19.6633 13.7871 19.6633Z" fill="#0F172A"/>
<path fill-rule="evenodd" clip-rule="evenodd" d="M13.6875 11.7571C14.1017 11.7571 14.4375 11.4213 14.4375 11.0071V9.74754C14.4375 9.33333 14.1017 8.99754 13.6875 8.99754C13.2733 8.99754 12.9375 9.33333 12.9375 9.74754V11.0071C12.9375 11.4213 13.2733 11.7571 13.6875 11.7571Z" fill="#0F172A"/>
<path fill-rule="evenodd" clip-rule="evenodd" d="M10.0485 23.685C10.2305 24.0002 10.6125 24.1392 10.9545 24.0147L14.0001 22.9062L17.0456 24.0147C17.3876 24.1392 17.7696 24.0002 17.9516 23.685L19.5721 20.8782L22.6176 19.7697C22.9596 19.6452 23.1629 19.2931 23.0997 18.9347L22.5369 15.7429L24.1574 12.9362C24.3394 12.621 24.2688 12.2206 23.99 11.9867L21.5073 9.90339L20.9445 6.71168C20.8813 6.35325 20.5698 6.09193 20.2059 6.09193H16.9649L14.4822 4.00864C14.2033 3.77468 13.7968 3.77468 13.518 4.00864L11.0352 6.09193H7.79427C7.4303 6.09193 7.11886 6.35325 7.05566 6.71169L6.49289 9.90339L4.01013 11.9867C3.73132 12.2206 3.66072 12.621 3.84271 12.9362L5.46318 15.7429L4.90041 18.9347C4.83721 19.2931 5.04048 19.6452 5.3825 19.7697L8.42803 20.8782L10.0485 23.685ZM11.0329 22.3899L9.59058 19.8918C9.50242 19.7391 9.36327 19.6223 9.19758 19.562L6.4869 18.5754L6.9878 15.7346C7.01841 15.5609 6.98687 15.382 6.89871 15.2293L5.45641 12.7312L7.66619 10.877C7.80126 10.7636 7.89209 10.6063 7.9227 10.4327L8.42359 7.59193H11.3082C11.4845 7.59193 11.6552 7.5298 11.7903 7.41646L14.0001 5.56223L16.2098 7.41646C16.3449 7.5298 16.5156 7.59193 16.6919 7.59193H19.5765L20.0775 10.4327C20.1081 10.6063 20.1989 10.7636 20.334 10.877L22.5437 12.7312L21.1014 15.2293C21.0133 15.382 20.9817 15.5609 21.0123 15.7346L21.5132 18.5754L18.8025 19.562C18.6369 19.6223 18.4977 19.7391 18.4095 19.8918L16.9672 22.3899L14.2566 21.4033C14.0909 21.343 13.9092 21.343 13.7435 21.4033L11.0329 22.3899Z" fill="#0F172A"/>
<path fill-rule="evenodd" clip-rule="evenodd" d="M24.4496 8.26567C24.6561 8.62472 25.1146 8.74837 25.4737 8.54185L26.7983 7.77994C27.1573 7.57342 27.281 7.11493 27.0745 6.75587C26.8679 6.39682 26.4095 6.27317 26.0504 6.47969L24.7258 7.24159C24.3667 7.44812 24.2431 7.90661 24.4496 8.26567Z" fill="#0F172A"/>
<path fill-rule="evenodd" clip-rule="evenodd" d="M3.55494 8.26567C3.76146 7.90661 3.63781 7.44812 3.27876 7.24159L1.95415 6.47969C1.5951 6.27317 1.1366 6.39682 0.930078 6.75587C0.723553 7.11493 0.847203 7.57342 1.20626 7.77994L2.53087 8.54185C2.88992 8.74837 3.34841 8.62472 3.55494 8.26567Z" fill="#0F172A"/>
<path fill-rule="evenodd" clip-rule="evenodd" d="M0.755774 16.9154C0.86208 17.3158 1.2728 17.5541 1.67314 17.4478L3.15007 17.0557C3.55041 16.9494 3.78877 16.5386 3.68247 16.1383C3.57616 15.738 3.16544 15.4996 2.7651 15.6059L1.28817 15.9981C0.887831 16.1044 0.649469 16.5151 0.755774 16.9154Z" fill="#0F172A"/>
<path fill-rule="evenodd" clip-rule="evenodd" d="M9.78528 3.00535C10.1548 2.81821 10.3027 2.36694 10.1155 1.99741L9.42511 0.634145C9.23797 0.264617 8.7867 0.116764 8.41717 0.303907C8.04764 0.491049 7.89979 0.942319 8.08693 1.31185L8.77734 2.67512C8.96448 3.04464 9.41575 3.1925 9.78528 3.00535Z" fill="#0F172A"/>
<path fill-rule="evenodd" clip-rule="evenodd" d="M18.218 3.00535C18.5875 3.1925 19.0387 3.04464 19.2259 2.67512L19.9163 1.31185C20.1034 0.942319 19.9556 0.491049 19.5861 0.303907C19.2165 0.116764 18.7653 0.264617 18.5781 0.634145L17.8877 1.99741C17.7006 2.36694 17.8484 2.81821 18.218 3.00535Z" fill="#0F172A"/>
<path fill-rule="evenodd" clip-rule="evenodd" d="M5.0617 26.342C5.43123 26.5292 5.8825 26.3813 6.06964 26.0118L6.76005 24.6485C6.94719 24.279 6.79934 23.8277 6.42981 23.6406C6.06028 23.4534 5.60901 23.6013 5.42187 23.9708L4.73146 25.3341C4.54432 25.7036 4.69217 26.1549 5.0617 26.342Z" fill="#0F172A"/>
<path fill-rule="evenodd" clip-rule="evenodd" d="M14.002 27.7498C14.4162 27.7498 14.752 27.414 14.752 26.9998V25.4716C14.752 25.0574 14.4162 24.7216 14.002 24.7216C13.5877 24.7216 13.252 25.0574 13.252 25.4716V26.9998C13.252 27.414 13.5877 27.7498 14.002 27.7498Z" fill="#0F172A"/>
<path fill-rule="evenodd" clip-rule="evenodd" d="M22.9473 26.342C23.3168 26.1549 23.4647 25.7036 23.2776 25.3341L22.5872 23.9708C22.4001 23.6013 21.9488 23.4534 21.5793 23.6406C21.2098 23.8277 21.0619 24.279 21.249 24.6485L21.9394 26.0118C22.1265 26.3813 22.5778 26.5292 22.9473 26.342Z" fill="#0F172A"/>
<path fill-rule="evenodd" clip-rule="evenodd" d="M27.2411 16.9154C27.3474 16.5151 27.109 16.1044 26.7087 15.9981L25.2317 15.6059C24.8314 15.4996 24.4207 15.738 24.3144 16.1383C24.2081 16.5386 24.4464 16.9494 24.8468 17.0557L26.3237 17.4478C26.724 17.5541 27.1348 17.3158 27.2411 16.9154Z" fill="#0F172A"/>
</svg>
