<svg width="26" height="26" viewBox="0 0 26 26" fill="none" xmlns="http://www.w3.org/2000/svg">
<path d="M12.2265 1.00005C8.02395 1.01119 2.94348 5.91973 3.00048 11.1034C2.99112 16.2202 7.03202 20.7336 13.0968 21.0044C16.5396 21.1562 17.8029 19.406 19.2474 19.7925C20.692 20.1791 20.8417 21.4596 20.7685 22.4366C20.7673 22.7113 20.7104 22.9829 20.6013 23.2347C20.4922 23.4864 20.3332 23.7131 20.1341 23.9007C19.9349 24.0883 19.6998 24.233 19.4432 24.3258C19.1866 24.4186 18.9139 24.4577 18.6417 24.4405C17.8012 24.012 18.3091 21.6978 17.0203 21.5607C16.2155 21.6464 15.8565 22.3578 16.0343 23.2286C16.2121 24.0994 17.324 24.9325 18.9123 24.9985C19.2505 25.0105 19.5876 24.9519 19.9024 24.8264C20.2171 24.701 20.5028 24.5114 20.7414 24.2695C20.98 24.0275 21.1664 23.7386 21.2889 23.4207C21.4114 23.1028 21.4674 22.7628 21.4534 22.4221C21.5108 21.7077 21.2955 20.9981 20.8514 20.4381C20.4074 19.8781 19.768 19.5099 19.0637 19.4086C17.4363 19.256 15.3741 21.2419 12.2945 20.671C10.1682 20.3035 8.2456 19.1734 6.88154 17.4895C5.51748 15.8055 4.80404 13.6812 4.8729 11.5088C4.89842 5.59489 10.3422 2.72023 13.7646 2.75194C17.187 2.78365 18.9914 3.95186 19.5146 5.91716C20.0378 7.88246 17.7868 9.87347 16.7727 11.0365C15.7587 12.1996 15.2227 12.9787 15.4354 14.3372C15.6489 15.7625 17.2746 17.8512 18.9795 17.8401C20.6843 17.8289 23.1641 15.9074 22.9914 11.2405C22.9841 9.69673 22.6317 8.17444 21.9604 6.78665C21.2892 5.39887 20.3162 4.18125 19.1139 3.22419C17.894 2.24797 16.4307 0.990625 12.2265 1.00005Z" fill="#0F172A"/>
</svg>
